<svg width="223" height="85" viewBox="0 0 223 85" fill="none" xmlns="http://www.w3.org/2000/svg">
<g clip-path="url(#clip0_32_37)">
<path fill-rule="evenodd" clip-rule="evenodd" d="M175.226 7.33C172.28 2.7607 167.215 0 161.779 0H16C7.16344 0 0 7.16344 0 16V37V38V69C0 77.8366 7.16344 85 16 85H207C215.837 85 223 77.8366 223 69V53C223 44.1634 215.837 37 207 37H203.077C197.64 37 192.575 34.2393 189.629 29.67L175.226 7.33Z" fill="#598BE0"/>
<path d="M72.2256 22.1113L70.3711 21.6631L71.083 15.2031H78.123V17.1279H73.0078L72.6738 20.1162C72.8555 20.0049 73.1191 19.8936 73.4648 19.7822C73.8164 19.665 74.2119 19.6064 74.6514 19.6064C75.2607 19.6064 75.8057 19.7061 76.2861 19.9053C76.7666 20.0986 77.1738 20.3799 77.5078 20.749C77.8477 21.1182 78.1025 21.5693 78.2725 22.1025C78.4482 22.6299 78.5361 23.2275 78.5361 23.8955C78.5361 24.4814 78.4482 25.0322 78.2725 25.5479C78.1025 26.0576 77.8418 26.5117 77.4902 26.9102C77.1387 27.3027 76.6963 27.6133 76.1631 27.8418C75.6299 28.0645 75.0029 28.1758 74.2822 28.1758C73.7373 28.1758 73.2129 28.0967 72.709 27.9385C72.2109 27.7744 71.7627 27.5371 71.3643 27.2266C70.9658 26.9102 70.6465 26.5234 70.4062 26.0664C70.1719 25.6094 70.043 25.085 70.0195 24.4932H72.3135C72.3545 24.8857 72.46 25.2197 72.6299 25.4951C72.7998 25.7705 73.0225 25.9814 73.2979 26.1279C73.5791 26.2744 73.9043 26.3477 74.2734 26.3477C74.6074 26.3477 74.8945 26.2861 75.1348 26.1631C75.3809 26.0342 75.583 25.8555 75.7412 25.627C75.8994 25.3984 76.0166 25.1289 76.0928 24.8184C76.1689 24.5078 76.207 24.168 76.207 23.7988C76.207 23.4414 76.1631 23.1162 76.0752 22.8232C75.9873 22.5244 75.8525 22.2666 75.6709 22.0498C75.4893 21.833 75.2607 21.666 74.9854 21.5488C74.7158 21.4316 74.3994 21.373 74.0361 21.373C73.5498 21.373 73.1748 21.4463 72.9111 21.5928C72.6533 21.7393 72.4248 21.9121 72.2256 22.1113ZM88.4873 23.9746H85.4727L85.4551 22.4014H87.9336C88.3027 22.4014 88.6045 22.3633 88.8389 22.2871C89.0732 22.2109 89.2461 22.0967 89.3574 21.9443C89.4746 21.792 89.5332 21.6074 89.5332 21.3906C89.5332 21.2031 89.498 21.042 89.4277 20.9072C89.3574 20.7666 89.252 20.6523 89.1113 20.5645C88.9766 20.4766 88.8037 20.4121 88.5928 20.3711C88.3877 20.3242 88.1475 20.3008 87.8721 20.3008H86.2988V28H83.9697V18.4902H87.8721C88.4873 18.4902 89.041 18.5459 89.5332 18.6572C90.0254 18.7627 90.4443 18.9238 90.79 19.1406C91.1357 19.3574 91.3994 19.6328 91.5811 19.9668C91.7686 20.2949 91.8623 20.6816 91.8623 21.127C91.8623 21.4199 91.7979 21.6953 91.6689 21.9531C91.54 22.2109 91.3496 22.4395 91.0977 22.6387C90.8457 22.8379 90.5352 23.002 90.166 23.1309C89.7969 23.2539 89.375 23.3301 88.9004 23.3594L88.4873 23.9746ZM88.4873 28H84.8486L85.71 26.1895H88.4873C88.8271 26.1895 89.1084 26.1484 89.3311 26.0664C89.5537 25.9785 89.7178 25.8525 89.8232 25.6885C89.9346 25.5244 89.9902 25.3252 89.9902 25.0908C89.9902 24.8623 89.9375 24.666 89.832 24.502C89.7324 24.332 89.5713 24.2031 89.3486 24.1152C89.1318 24.0215 88.8447 23.9746 88.4873 23.9746H86.0879L86.1055 22.4014H88.8916L89.5068 23.0254C90.1396 23.0664 90.6641 23.1953 91.0801 23.4121C91.4961 23.623 91.8066 23.8926 92.0117 24.2207C92.2168 24.543 92.3193 24.8975 92.3193 25.2842C92.3193 25.7354 92.2344 26.1309 92.0645 26.4707C91.8945 26.8105 91.6455 27.0947 91.3174 27.3232C90.9893 27.5459 90.5879 27.7158 90.1133 27.833C89.6387 27.9443 89.0967 28 88.4873 28ZM103.343 15.168V28H101.014V17.8838L97.9287 18.9033V17.0225L103.079 15.168H103.343Z" fill="white"/>
</g>
<defs>
<clipPath id="clip0_32_37">
<rect width="223" height="85" fill="white"/>
</clipPath>
</defs>
</svg>
