<svg width="237" height="225" viewBox="0 0 237 225" fill="none" xmlns="http://www.w3.org/2000/svg">
<rect width="237" height="225" rx="20" fill="white"/>
<g clip-path="url(#clip0_32_267)">
<path d="M143.996 108.162C143.996 108.162 132.755 130.208 121.326 145.439C116.78 151.494 112.211 156.468 108.3 158.551C104.482 160.578 101.24 163.732 98.5621 167.232C91.6319 176.28 88.4253 187.62 88.4253 187.62L59.2129 144.311C59.2129 144.311 60.2113 101.968 63.7116 94.888C68.8211 84.5615 71.2878 63.7126 73.2611 59.5566C74.7176 56.4713 78.8757 40.5727 79.2751 39.3985C79.4513 38.8919 80.8373 38.1206 82.6345 38.1206C84.0792 38.1206 86.5224 39.4906 87.1449 42.2996C90.2694 56.4943 86.5107 65.8539 86.5459 66.2798C87.65 77.1935 84.3376 85.2867 86.6634 87.428C86.7456 87.5086 86.91 87.4741 87.1332 87.3244C91.1621 84.7917 116.158 49.0804 119.235 48.309C122.5 47.4802 143.996 108.162 143.996 108.162Z" fill="#FFDB7D"/>
<path d="M97.2234 179.032C97.2234 179.032 96.8241 198.281 95.6847 224.206H22.0137C38.8457 189.013 53.493 159.38 53.493 159.38C53.493 159.38 95.4498 160.635 97.2234 179.032Z" fill="#D2E3FC"/>
<path d="M169.7 33.1778L160.656 46.1753L151.776 58.931C151.235 59.5757 150.613 59.7944 149.932 59.7253C147.806 59.5296 145.163 56.5134 143.107 54.8441L142.896 54.6714C140.182 52.4726 139.807 48.5123 142.05 45.853L155.617 29.7817L159.646 25.0156C161.889 22.3562 165.93 21.9878 168.643 24.1867L168.854 24.3594C171.568 26.5467 171.944 30.5185 169.7 33.1778Z" fill="#FDCD51"/>
<path d="M160.488 46.5364L151.608 59.2921C151.067 59.9368 150.445 60.1555 149.764 60.0864L155.449 30.1543C155.472 30.3155 156.435 43.7504 160.488 46.5364Z" fill="#FDCD51"/>
<path d="M121.326 145.439C116.78 151.494 112.211 156.468 108.299 158.551C104.482 160.578 101.24 163.732 98.5618 167.232C95.4844 165.827 91.9723 164.17 88.5425 162.546C84.3609 160.555 84.2082 154.741 88.2958 152.588C88.3311 152.565 88.378 152.542 88.4133 152.519C92.2425 150.366 96.1774 142.78 96.1774 142.78L121.326 145.439Z" fill="#FDCD51"/>
<path d="M79.0875 40.0432L76.7148 49.4143C76.7148 49.4143 78.7821 50.2432 80.1094 49.5985C81.4367 48.9538 82.5409 40.5498 79.0875 40.0432Z" fill="#FCE29E"/>
<path d="M147.155 149.86H96.2594C91.2556 149.86 87.1562 145.842 87.1562 140.938V31.2939C87.1562 26.3896 91.2556 22.3718 96.2594 22.3718H147.155C152.159 22.3718 156.258 26.3896 156.258 31.2939V140.938C156.258 145.842 152.159 149.86 147.155 149.86Z" fill="#2B478B"/>
<path d="M152.84 32.1342V139.234C152.84 142.872 149.833 145.842 146.145 145.842H97.2696C93.5931 145.842 90.5743 142.872 90.5743 139.234V32.1342C90.5743 28.4963 93.5813 25.5261 97.2696 25.5261H146.145C149.821 25.5261 152.84 28.5078 152.84 32.1342Z" fill="#C0D8FB"/>
<path d="M146.145 25.5261L97.8803 145.853H97.2813C93.6048 145.853 90.5861 142.883 90.5861 139.245V32.1342C90.5861 28.4963 93.593 25.5261 97.2813 25.5261H146.145Z" fill="#CBE1FD"/>
<path d="M131.922 29.5098H111.495C109.827 29.5098 108.465 28.1743 108.465 26.5396V26.0791C108.465 24.4443 109.827 23.1089 111.495 23.1089H131.922C133.59 23.1089 134.952 24.4443 134.952 26.0791V26.5396C134.952 28.1858 133.59 29.5098 131.922 29.5098Z" fill="#2B478B"/>
<path d="M165.034 82.6158L163.683 83.1224L154.615 86.4955C154.403 86.5761 154.192 86.6452 153.969 86.6912C150.962 87.451 147.767 85.8854 146.639 82.9842L146.51 82.6389C145.3 79.5305 146.909 76.0078 150.093 74.822L158.55 71.6676L159.161 71.4374L160.511 70.9308C163.683 69.745 167.277 71.3222 168.475 74.4421L168.604 74.7874C169.826 77.9188 168.217 81.4416 165.034 82.6158Z" fill="#FDCD51"/>
<path d="M157.67 82.823C156.155 83.3871 153.418 84.3887 151.95 84.5844C151.539 84.642 150.775 84.4232 150.059 83.6519C149.636 83.1914 149.225 82.5352 148.919 81.6372C148.778 81.2113 148.661 80.7853 148.614 80.3479C148.555 79.8413 148.567 79.3233 148.661 78.8167C148.743 78.3562 149.06 77.9418 149.53 77.723C149.53 77.723 149.53 77.723 149.542 77.723C151.104 76.9978 153.207 76.0998 155.039 75.6048C156.308 75.2594 157.6 75.812 157.999 76.9057L158.187 77.4122L159.162 80.0255C159.561 81.1192 158.904 82.3625 157.67 82.823Z" fill="#FCE29E"/>
<path d="M157.668 82.823C156.153 83.3871 153.416 84.3887 151.948 84.5844C151.537 84.642 150.773 84.4232 150.057 83.6519C149.986 83.4792 149.916 83.295 149.845 83.0993C149.704 82.6734 149.587 82.2474 149.54 81.8099C149.481 81.3034 149.493 80.7853 149.587 80.2788C149.669 79.8183 149.986 79.4039 150.456 79.1851C150.456 79.1851 150.456 79.1851 150.468 79.1851C152.03 78.4599 154.133 77.5619 155.965 77.0669C156.775 76.8481 157.598 76.9978 158.197 77.4122L159.172 80.0255C159.559 81.1192 158.901 82.3625 157.668 82.823Z" fill="#FDCD51"/>
<path d="M160.922 95.1185L153.921 96.9835C151.795 97.5476 149.587 96.3158 148.999 94.2321L148.788 93.4607C148.212 91.377 149.469 89.2127 151.595 88.637L158.596 86.772C160.722 86.2079 162.93 87.4398 163.518 89.5235L163.729 90.2948C164.304 92.3786 163.048 94.5544 160.922 95.1185Z" fill="#FDCD51"/>
<path d="M157.139 94.7847C155.859 95.1185 153.533 95.7172 152.312 95.7747C151.866 95.7978 150.985 95.4294 150.409 94.2896C150.268 94.0133 150.151 93.691 150.057 93.3226C149.974 92.9887 149.904 92.6549 149.904 92.3095C149.892 91.9066 149.951 91.5152 150.057 91.1353C150.162 90.7899 150.456 90.4906 150.844 90.3524C150.844 90.3524 150.844 90.3524 150.855 90.3524C152.183 89.8919 153.98 89.3393 155.53 89.0745C156.599 88.8903 157.609 89.3969 157.868 90.2603L158.044 90.882L158.584 92.7355C158.819 93.5989 158.185 94.5084 157.139 94.7847Z" fill="#FDCD51"/>
<path d="M157.139 94.7844C155.858 95.1183 153.533 95.7169 152.311 95.7745C151.865 95.7975 150.984 95.4291 150.408 94.2894C150.326 93.9785 150.279 93.6677 150.267 93.3454C150.255 92.9539 150.314 92.551 150.42 92.1711C150.526 91.8257 150.819 91.5264 151.207 91.3883C151.207 91.3883 151.207 91.3883 151.219 91.3883C152.546 90.9278 154.343 90.3752 155.893 90.1104C156.774 89.9607 157.632 90.2831 158.031 90.8817L158.572 92.7352C158.818 93.5986 158.184 94.5081 157.139 94.7844Z" fill="#FCE29E"/>
<path d="M46.3162 173.978C46.3162 173.978 60.7168 187.494 70.4191 192.709L77.7721 187.597V195.138C77.7721 195.138 92.2314 197.648 96.7889 195.138V174.588L56.1946 154.649L46.3162 173.978Z" fill="#C1DAFF"/>
<path d="M99.8554 193.515C94.2643 194.643 82.2129 190.337 82.2129 190.337L84.1627 171.929L70.5373 187.217C63.6072 184.685 52.7656 178.088 46.3288 173.99C43.1221 171.94 41.0078 170.513 41.0078 170.513C50.0992 156.18 59.2376 142.768 59.2376 142.768C61.9157 148.029 68.2703 152.6 75.1535 156.249C86.5941 162.328 99.5147 165.873 99.5147 165.873C99.503 176.81 99.8554 193.515 99.8554 193.515Z" fill="#DCEAFF"/>
<path d="M164.83 69.536C164.783 69.5591 164.736 69.5706 164.677 69.5821L155.504 71.8845C151.475 72.8976 147.305 70.7563 146.236 67.1299L145.696 65.2765C144.674 61.7882 146.87 58.1503 150.617 56.9645L153.648 56.2047L159.791 54.6621C163.82 53.649 167.99 55.7903 169.059 59.4167L169.599 61.2702C170.609 64.7123 168.483 68.3042 164.83 69.536Z" fill="#FDCD51"/>
<path d="M160.636 67.0262L156.185 68.9948C156.173 68.9948 156.173 68.9948 156.161 69.0063C155.985 69.0524 155.797 69.0869 155.621 69.1099C155.55 69.1214 155.468 69.133 155.398 69.133C155.363 69.133 155.339 69.133 155.304 69.133C154.81 69.1214 154.482 68.6034 154.693 68.1544C155.116 67.2564 155.233 66.2203 154.94 65.1957L154.834 64.8158V64.8043L154.493 63.561C154.223 62.5709 153.636 61.742 152.872 61.1434C152.778 61.0743 152.684 61.0052 152.59 60.9362C151.709 60.3375 151.933 58.9791 152.966 58.7028C152.978 58.7028 152.99 58.7028 152.99 58.6913L157.876 57.966C159.086 57.6436 160.249 58.5531 160.578 59.7389L160.965 61.1549L161.799 64.1711C162.128 65.3684 161.835 66.7038 160.636 67.0262Z" fill="#FDCD51"/>
<path d="M160.637 67.0263L156.185 68.9949C156.174 68.9949 156.174 68.9949 156.162 69.0065C156.056 69.0295 155.727 69.0755 155.304 69.1446C154.811 69.1331 154.482 68.615 154.694 68.1661C155.117 67.2681 155.234 66.232 154.94 65.2074L154.835 64.8275V64.816L154.494 63.5726C154.224 62.5826 153.637 61.7537 152.873 61.155C153.026 60.9248 153.261 60.7521 153.578 60.6715C153.59 60.6715 153.601 60.6715 153.601 60.66L158.488 59.9347C159.51 59.6584 160.496 60.2686 160.978 61.1666L161.812 64.1828C162.129 65.3686 161.835 66.704 160.637 67.0263Z" fill="#FCE29E"/>
<path d="M87.1572 116.232C87.1572 116.232 85.1603 99.1133 83.3162 95.7747C81.4721 92.4361 79.9099 85.7475 82.7524 80.7856C85.5832 75.8238 86.5699 66.2686 86.5699 66.2686C87.674 77.1823 84.3616 85.2755 86.6873 87.4168C86.7695 87.4973 86.934 87.4628 87.1572 87.3131V116.232Z" fill="#FDCD51"/>
<path d="M62.3617 88.3492H131.851C134.259 88.3492 136.221 86.4381 136.221 84.0666V56.7938C136.221 54.4338 134.271 52.5112 131.851 52.5112H62.3617C59.9538 52.5112 57.9922 54.4223 57.9922 56.7938V84.0666C57.9922 86.4381 59.9538 88.3492 62.3617 88.3492Z" fill="#598BE0"/>
<path d="M132.331 47.9754H105.139C103.119 47.9754 101.486 46.3751 101.486 44.395V39.3411C101.486 37.361 103.119 35.7607 105.139 35.7607H132.331C134.352 35.7607 135.984 37.361 135.984 39.3411V44.395C135.984 46.3751 134.352 47.9754 132.331 47.9754Z" fill="#9ABFF6"/>
<path d="M131.145 137.553H99.7836C97.3639 137.553 95.4141 135.631 95.4141 133.27V126.777C95.4141 124.406 97.3756 122.495 99.7836 122.495H131.134C133.553 122.495 135.503 124.417 135.503 126.777V133.27C135.515 135.631 133.553 137.553 131.145 137.553Z" fill="#9ABFF6"/>
<path d="M143.327 116.232H113.704C110.814 116.232 108.465 113.93 108.465 111.098V99.7351C108.465 96.9031 110.814 94.6006 113.704 94.6006H143.327C146.217 94.6006 148.566 96.9031 148.566 99.7351V111.098C148.578 113.93 146.228 116.232 143.327 116.232Z" fill="#FDCD51"/>
<path d="M227.075 224.218H173.032C170.436 222.514 156.987 213.523 151.419 206.811C150.245 205.395 145.922 193.135 142.61 183.199C140.542 176.983 138.851 171.675 138.569 170.455C138.475 170.029 138.405 169.189 138.369 168.049V168.038C138.228 163.974 138.416 156.122 138.616 149.894V149.86V149.779C138.628 149.503 138.64 149.238 138.64 148.973V148.962C138.64 148.939 138.64 148.904 138.64 148.881C138.675 147.799 138.71 146.774 138.745 145.853C138.827 143.539 138.898 141.789 138.933 141.11L138.945 140.788C139.027 140.742 141.635 139.383 145.1 141.835C145.934 142.434 146.709 143.862 147.426 145.727C147.884 146.924 148.306 148.294 148.694 149.733C150.209 155.282 151.302 161.925 151.877 163.697C152.817 166.576 163.858 179.205 164.551 179.987C164.563 179.999 164.575 180.01 164.586 180.022V160.071L156.247 138.198L152.817 129.218L151.102 124.705C151.102 124.705 148.459 120.457 146.251 115.346C145.276 113.112 144.395 110.706 143.843 108.427C143.714 107.886 143.596 107.344 143.514 106.815C143.185 104.881 143.162 103.096 143.62 101.646C144.43 99.0555 146.239 98.5605 147.637 98.6181C147.778 98.6181 147.919 98.6296 148.06 98.6526C148.201 98.6641 148.33 98.6987 148.459 98.7332C148.706 98.8023 148.941 98.8944 149.152 99.021C149.505 99.2282 149.822 99.5045 150.057 99.8499C150.057 99.8499 151.231 101.358 152.817 103.384C153.862 104.72 155.072 106.274 156.247 107.782C158.326 110.464 160.252 112.962 160.793 113.688C163.659 117.648 171.387 130.553 171.387 130.553L180.432 130.922C181.865 130.979 183.227 131.543 184.273 132.499C187.491 135.446 194.421 141.812 195.279 142.756C195.279 143.067 200.67 145.612 204.828 147.868C207.8 149.1 213.462 153.474 213.462 153.474C214.636 154.488 215.529 155.501 215.975 156.468C217.913 160.601 223.176 196.577 225.689 214.363C226.512 220.085 227.04 223.919 227.075 224.218Z" fill="#FFDB7D"/>
<path d="M171.4 130.553C171.4 130.553 179.775 143.954 180.891 144.564C181.995 145.163 186.318 146.015 186.811 144.564C187.293 143.113 171.4 130.553 171.4 130.553Z" fill="#FDCD51"/>
<path d="M213.509 153.521C213.497 153.509 213.486 153.497 213.462 153.486C213.462 153.486 207.8 149.111 204.829 147.879C201.011 145.807 196.148 143.493 195.385 142.883C196.278 143.873 202.515 150.804 204.911 151.322C207.025 151.782 211.818 153.06 213.509 153.521Z" fill="#FDCD51"/>
<path d="M164.598 180.022V160.071C164.598 160.071 169.437 168.003 169.801 172.343C170.177 176.695 167.793 183.74 164.598 180.022Z" fill="#FDCD51"/>
<path d="M147.062 106.826C146.357 105.641 145.088 103.488 144.654 102.279C144.536 101.934 144.548 101.254 144.971 100.529C145.229 100.092 145.629 99.6427 146.24 99.2398C146.521 99.0556 146.815 98.8829 147.132 98.7678C147.496 98.6411 147.884 98.5721 148.272 98.5605C148.624 98.5605 148.988 98.7563 149.247 99.1131C150.081 100.31 151.149 101.945 151.866 103.419C152.371 104.443 152.207 105.618 151.478 106.136L151.138 106.377L149.399 107.621C148.671 108.15 147.637 107.793 147.062 106.826Z" fill="#FFD3B6"/>
<path d="M147.062 106.826C146.357 105.641 145.088 103.488 144.654 102.279C144.536 101.934 144.548 101.254 144.971 100.529C145.088 100.437 145.206 100.345 145.335 100.264C145.617 100.08 145.911 99.9075 146.228 99.7924C146.592 99.6658 146.98 99.5967 147.367 99.5852C147.72 99.5852 148.084 99.7809 148.342 100.138C149.176 101.335 150.245 102.97 150.962 104.443C151.279 105.1 151.337 105.813 151.138 106.378L149.399 107.621C148.671 108.15 147.637 107.794 147.062 106.826Z" fill="#FCE29E"/>
<path d="M88.0624 69.0889C88.0624 71.6446 87.1814 73.9932 85.7131 75.8697C85.2198 76.4913 84.6678 77.067 84.057 77.5735C82.0836 79.2198 79.523 80.2098 76.7274 80.2098C74.1903 80.2098 71.8529 79.3924 69.9617 78.011C69.1278 77.4008 68.3878 76.687 67.7535 75.8812C66.2735 74.0047 65.4043 71.6561 65.4043 69.1004C65.4043 62.9643 70.4786 57.991 76.7392 57.991C82.9998 57.991 88.0624 62.9528 88.0624 69.0889Z" fill="white"/>
<path d="M81.2719 74.3384C81.2367 74.3039 81.2132 74.2693 81.1779 74.2463C81.0487 74.1427 80.9195 74.0851 80.391 74.0045C80.1208 73.9585 79.7567 73.9124 79.2281 73.8434C79.2281 73.8434 79.1106 73.8319 79.0519 73.8319C79.0167 73.8319 78.9697 73.8203 78.9227 73.8203C78.77 73.7397 78.7348 73.1296 78.7348 72.4849C78.7348 72.4389 78.7348 72.3928 78.7348 72.3352C78.7348 72.0935 78.7465 71.8517 78.7582 71.633C78.7582 71.6215 78.7582 71.61 78.7582 71.5985C79.0871 71.6215 79.2986 71.6215 79.2986 71.6215C79.8976 71.5754 80.2735 69.9867 80.4144 68.7089C80.4144 68.7089 80.7081 68.0066 80.7081 67.2468C80.7081 66.8208 80.6141 66.3718 80.3205 66.0265C80.1678 65.8423 80.0268 65.7272 79.8976 65.6581C79.8624 65.6235 79.8271 65.589 79.7802 65.5545C79.2163 64.9443 76.9376 62.6533 75.4341 63.9773C75.3989 63.8506 74.9056 62.354 72.5446 62.8491C72.6973 62.8375 73.7427 62.7339 74.0481 63.1484C74.0011 63.1254 73.0967 62.7339 72.5094 63.0793C72.2392 63.2405 72.0748 63.5743 71.9808 63.9197C71.9808 63.9197 71.9808 63.9197 71.9808 63.9312C71.9808 63.9312 71.9808 63.9312 71.9808 63.9427V63.9542C71.969 64.0003 71.9573 64.0463 71.9455 64.0924C71.9455 64.1039 71.9455 64.1039 71.9455 64.1154C71.9455 64.1154 71.9455 64.1154 71.9455 64.1269C71.8751 64.4838 71.8751 64.8292 71.9221 65.0019C72.016 65.3588 72.6621 66.4409 73.0967 66.4409C73.2611 66.4409 73.4373 66.3834 73.59 66.3258C73.5195 66.5215 73.4608 66.7287 73.4138 66.959C72.9557 69.0772 74.3887 70.689 75.1287 70.286C75.6103 70.0328 75.9627 70.8501 75.9627 70.8501C75.8922 72.4043 75.4576 73.4059 75.1405 73.6592C75.023 73.6707 74.7763 73.7052 74.4592 73.7513C74.4592 73.7513 73.3668 73.8664 72.5328 74.2233C72.5211 74.2233 72.5211 74.2233 72.5094 74.2348C72.3214 74.3154 72.157 74.396 72.0395 74.4881C71.9808 74.5341 71.9221 74.5917 71.8868 74.6492C71.8633 74.6723 71.8516 74.6953 71.8398 74.7183C71.5579 75.2364 71.276 76.0192 71.0059 76.9402C72.6033 78.1145 74.6002 78.8052 76.7497 78.8052C79.1224 78.8052 81.2837 77.9648 82.9633 76.5718C82.3643 75.2709 81.6595 74.6147 81.2719 74.3384Z" fill="#2B478B"/>
<path d="M108.7 63.4825H95.8144C95.368 63.4825 95.0039 63.1256 95.0039 62.6882V62.3083C95.0039 61.8708 95.368 61.5139 95.8144 61.5139H108.7C109.146 61.5139 109.51 61.8708 109.51 62.3083V62.6882C109.51 63.1256 109.146 63.4825 108.7 63.4825Z" fill="white"/>
<path d="M108.852 70.574H95.6617C95.2976 70.574 95.0039 70.2862 95.0039 69.9294C95.0039 69.5725 95.2976 69.2847 95.6617 69.2847H108.852C109.217 69.2847 109.51 69.5725 109.51 69.9294C109.51 70.2862 109.217 70.574 108.852 70.574Z" fill="white"/>
<path d="M103.015 73.6131H95.509C95.2271 73.6131 95.0039 73.3944 95.0039 73.1181V72.8188C95.0039 72.5425 95.2271 72.3237 95.509 72.3237H103.015C103.297 72.3237 103.52 72.5425 103.52 72.8188V73.1181C103.52 73.3829 103.285 73.6131 103.015 73.6131Z" fill="white"/>
<path d="M118.309 73.6131H106.187C105.846 73.6131 105.553 73.3368 105.553 72.9915V72.9454C105.553 72.6115 105.835 72.3237 106.187 72.3237H118.309C118.65 72.3237 118.943 72.6 118.943 72.9454V72.9915C118.931 73.3368 118.65 73.6131 118.309 73.6131Z" fill="white"/>
<path d="M129.631 70.574H112.341C111.977 70.574 111.684 70.2862 111.684 69.9294C111.684 69.5725 111.977 69.2847 112.341 69.2847H129.631C129.996 69.2847 130.289 69.5725 130.289 69.9294C130.289 70.2862 129.996 70.574 129.631 70.574Z" fill="white"/>
<path d="M108.852 76.6524H95.6617C95.2976 76.6524 95.0039 76.3646 95.0039 76.0077C95.0039 75.6508 95.2976 75.363 95.6617 75.363H108.852C109.217 75.363 109.51 75.6508 109.51 76.0077C109.51 76.3646 109.217 76.6524 108.852 76.6524Z" fill="white"/>
<path d="M129.631 76.6524H112.341C111.977 76.6524 111.684 76.3646 111.684 76.0077C111.684 75.6508 111.977 75.363 112.341 75.363H129.631C129.996 75.363 130.289 75.6508 130.289 76.0077C130.289 76.3646 129.996 76.6524 129.631 76.6524Z" fill="white"/>
<path d="M121.244 63.4825H112C111.612 63.4825 111.307 63.1717 111.307 62.8033V62.1931C111.307 61.8132 111.624 61.5139 112 61.5139H121.244C121.631 61.5139 121.937 61.8247 121.937 62.1931V62.8033C121.937 63.1832 121.62 63.4825 121.244 63.4825Z" fill="white"/>
<path d="M109.581 126.766H100.431C100.114 126.766 99.8555 126.513 99.8555 126.202V125.937C99.8555 125.627 100.114 125.373 100.431 125.373H109.581C109.898 125.373 110.157 125.627 110.157 125.937V126.202C110.169 126.513 109.898 126.766 109.581 126.766Z" fill="#699DEE"/>
<path d="M109.699 130.346H100.325C100.067 130.346 99.8554 130.139 99.8554 129.886C99.8554 129.632 100.067 129.425 100.325 129.425H109.699C109.957 129.425 110.168 129.632 110.168 129.886C110.157 130.139 109.957 130.346 109.699 130.346Z" fill="#699DEE"/>
<path d="M105.54 132.511H100.208C100.008 132.511 99.8554 132.349 99.8554 132.165V131.946C99.8554 131.751 100.02 131.601 100.208 131.601H105.54C105.74 131.601 105.893 131.762 105.893 131.946V132.165C105.905 132.349 105.74 132.511 105.54 132.511Z" fill="#699DEE"/>
<path d="M116.417 132.511H107.796C107.549 132.511 107.349 132.315 107.349 132.073V132.039C107.349 131.797 107.549 131.601 107.796 131.601H116.417C116.664 131.601 116.864 131.797 116.864 132.039V132.073C116.864 132.315 116.664 132.511 116.417 132.511Z" fill="#699DEE"/>
<path d="M124.475 130.346H112.177C111.919 130.346 111.707 130.139 111.707 129.886C111.707 129.632 111.919 129.425 112.177 129.425H124.475C124.734 129.425 124.945 129.632 124.945 129.886C124.933 130.139 124.722 130.346 124.475 130.346Z" fill="#699DEE"/>
<path d="M109.699 134.675H100.325C100.067 134.675 99.8554 134.467 99.8554 134.214C99.8554 133.961 100.067 133.754 100.325 133.754H109.699C109.957 133.754 110.168 133.961 110.168 134.214C110.157 134.467 109.957 134.675 109.699 134.675Z" fill="#699DEE"/>
<path d="M124.475 134.675H112.177C111.919 134.675 111.707 134.467 111.707 134.214C111.707 133.961 111.919 133.754 112.177 133.754H124.475C124.734 133.754 124.945 133.961 124.945 134.214C124.933 134.467 124.722 134.675 124.475 134.675Z" fill="#699DEE"/>
<path d="M118.509 126.766H111.931C111.661 126.766 111.438 126.547 111.438 126.282V125.845C111.438 125.58 111.661 125.361 111.931 125.361H118.509C118.779 125.361 119.002 125.58 119.002 125.845V126.282C119.002 126.547 118.779 126.766 118.509 126.766Z" fill="#699DEE"/>
<path d="M115.654 39.5143H106.503C106.186 39.5143 105.928 39.2611 105.928 38.9502V38.6854C105.928 38.3746 106.186 38.1213 106.503 38.1213H115.654C115.971 38.1213 116.229 38.3746 116.229 38.6854V38.9502C116.229 39.2611 115.971 39.5143 115.654 39.5143Z" fill="#699DEE"/>
<path d="M115.771 43.1058H106.398C106.139 43.1058 105.928 42.8986 105.928 42.6453C105.928 42.392 106.139 42.1848 106.398 42.1848H115.771C116.029 42.1848 116.241 42.392 116.241 42.6453C116.229 42.8986 116.029 43.1058 115.771 43.1058Z" fill="#699DEE"/>
<path d="M111.613 45.2701H106.28C106.08 45.2701 105.928 45.1089 105.928 44.9247V44.706C105.928 44.5103 106.092 44.3606 106.28 44.3606H111.613C111.812 44.3606 111.965 44.5218 111.965 44.706V44.9247C111.977 45.1089 111.812 45.2701 111.613 45.2701Z" fill="#699DEE"/>
<path d="M122.49 45.2703H113.868C113.622 45.2703 113.422 45.0746 113.422 44.8328V44.7983C113.422 44.5565 113.622 44.3608 113.868 44.3608H122.49C122.736 44.3608 122.936 44.5565 122.936 44.7983V44.8328C122.936 45.0746 122.736 45.2703 122.49 45.2703Z" fill="#699DEE"/>
<path d="M130.547 43.1058H118.249C117.991 43.1058 117.779 42.8986 117.779 42.6453C117.779 42.392 117.991 42.1848 118.249 42.1848H130.547C130.806 42.1848 131.017 42.392 131.017 42.6453C131.005 42.8986 130.794 43.1058 130.547 43.1058Z" fill="#699DEE"/>
<path d="M124.581 39.5139H118.003C117.733 39.5139 117.51 39.2952 117.51 39.0304V38.5929C117.51 38.3281 117.733 38.1094 118.003 38.1094H124.581C124.851 38.1094 125.074 38.3281 125.074 38.5929V39.0304C125.074 39.3067 124.851 39.5139 124.581 39.5139Z" fill="#699DEE"/>
<path d="M123.747 100.103H113.728C113.376 100.103 113.094 99.8269 113.094 99.4815V99.1822C113.094 98.8368 113.376 98.5605 113.728 98.5605H123.747C124.1 98.5605 124.382 98.8368 124.382 99.1822V99.4815C124.382 99.8154 124.1 100.103 123.747 100.103Z" fill="white"/>
<path d="M123.865 104.029H113.599C113.317 104.029 113.094 103.799 113.094 103.534C113.094 103.258 113.329 103.039 113.599 103.039H123.865C124.147 103.039 124.37 103.269 124.37 103.534C124.382 103.799 124.147 104.029 123.865 104.029Z" fill="white"/>
<path d="M119.331 106.389H113.493C113.282 106.389 113.105 106.216 113.105 106.009V105.779C113.105 105.571 113.282 105.399 113.493 105.399H119.331C119.542 105.399 119.718 105.571 119.718 105.779V106.009C119.718 106.216 119.542 106.389 119.331 106.389Z" fill="white"/>
<path d="M131.23 106.389H121.798C121.528 106.389 121.305 106.17 121.305 105.905V105.871C121.305 105.606 121.528 105.387 121.798 105.387H131.23C131.5 105.387 131.723 105.606 131.723 105.871V105.905C131.723 106.17 131.5 106.389 131.23 106.389Z" fill="white"/>
<path d="M140.05 104.029H126.589C126.307 104.029 126.084 103.799 126.084 103.534C126.084 103.258 126.319 103.039 126.589 103.039H140.05C140.332 103.039 140.555 103.269 140.555 103.534C140.555 103.799 140.32 104.029 140.05 104.029Z" fill="white"/>
<path d="M123.865 108.761H113.599C113.317 108.761 113.094 108.53 113.094 108.266C113.094 107.989 113.329 107.771 113.599 107.771H123.865C124.147 107.771 124.37 108.001 124.37 108.266C124.382 108.53 124.147 108.761 123.865 108.761Z" fill="white"/>
<path d="M140.05 108.761H126.589C126.307 108.761 126.084 108.53 126.084 108.266C126.084 107.989 126.319 107.771 126.589 107.771H140.05C140.332 107.771 140.555 108.001 140.555 108.266C140.555 108.53 140.32 108.761 140.05 108.761Z" fill="white"/>
<path d="M123.865 111.224H113.599C113.317 111.224 113.094 110.994 113.094 110.729C113.094 110.453 113.329 110.234 113.599 110.234H123.865C124.147 110.234 124.37 110.464 124.37 110.729C124.382 110.994 124.147 111.224 123.865 111.224Z" fill="white"/>
<path d="M140.05 111.224H126.589C126.307 111.224 126.084 110.994 126.084 110.729C126.084 110.453 126.319 110.234 126.589 110.234H140.05C140.332 110.234 140.555 110.464 140.555 110.729C140.555 110.994 140.32 111.224 140.05 111.224Z" fill="white"/>
<path d="M133.52 100.103H126.32C126.026 100.103 125.779 99.8614 125.779 99.5736V99.1016C125.779 98.8138 126.026 98.572 126.32 98.572H133.52C133.814 98.572 134.06 98.8138 134.06 99.1016V99.5736C134.06 99.8614 133.814 100.103 133.52 100.103Z" fill="white"/>
<path d="M95.4023 104.536C95.4023 105.537 95.743 106.458 96.3303 107.195C96.5182 107.437 96.7414 107.667 96.9763 107.863C97.2112 108.059 97.4696 108.231 97.7515 108.381C98.3741 108.715 99.0906 108.899 99.8541 108.899C100.806 108.899 101.686 108.611 102.403 108.116C102.438 108.093 102.473 108.07 102.509 108.036C102.838 107.794 103.131 107.517 103.378 107.195C103.953 106.458 104.306 105.537 104.306 104.536C104.306 102.13 102.309 100.173 99.8541 100.173C97.3992 100.173 95.4023 102.13 95.4023 104.536Z" fill="white"/>
<path d="M101.065 107.333L100.654 106.976C100.619 106.987 100.584 106.987 100.549 106.999C100.478 106.953 100.396 106.895 100.314 106.849C100.337 106.688 100.361 106.538 100.384 106.4C100.443 105.928 100.455 105.652 100.455 105.606C100.666 105.594 100.819 105.571 100.819 105.571C101.23 105.479 101.253 104.098 101.159 103.384C101.242 103.384 101.312 103.373 101.383 103.338C101.688 103.2 101.711 102.739 101.711 102.739C101.711 102.739 101.617 102.901 101.488 102.958C101.488 102.958 102.005 102.256 101.406 101.784C100.807 101.3 100.196 101.623 99.8438 101.634C99.0803 101.68 98.5752 101.726 98.3285 102.221C98.0819 102.705 98.1758 104.052 98.6574 104.547C98.6692 104.593 98.6692 104.639 98.6809 104.685C98.7044 104.858 98.7749 105.007 98.8689 105.122C98.7631 105.698 98.5165 106.136 98.3051 106.423C98.1524 106.538 98.0231 106.677 97.8939 106.861L97.8822 106.872C97.6473 107.195 97.4593 107.621 97.3066 108.104C97.3066 108.104 97.3066 108.104 97.3066 108.116C97.5533 108.288 97.8352 108.438 98.1171 108.553C98.1406 108.565 98.1524 108.565 98.1759 108.576H98.1876C98.2228 108.588 98.2463 108.599 98.2816 108.611C98.352 108.645 98.4343 108.668 98.5047 108.691C98.587 108.714 98.6692 108.737 98.7514 108.76C98.7866 108.772 98.8219 108.783 98.8689 108.783C98.9041 108.795 98.9393 108.795 98.9746 108.806H98.9863C99.0098 108.806 99.0333 108.818 99.0568 108.818C99.1038 108.829 99.1625 108.841 99.2095 108.841C99.2212 108.841 99.233 108.841 99.2447 108.841C99.28 108.841 99.3035 108.852 99.327 108.852C99.3739 108.852 99.4092 108.864 99.4444 108.864C99.4914 108.864 99.5384 108.875 99.5854 108.875C99.6324 108.875 99.6793 108.875 99.7146 108.887C99.7616 108.887 99.8085 108.887 99.8555 108.887C99.9025 108.887 99.9495 108.887 100.008 108.887H100.02C100.032 108.887 100.043 108.887 100.055 108.887C100.079 108.887 100.102 108.887 100.126 108.887C100.126 108.887 100.126 108.887 100.137 108.887C100.184 108.887 100.231 108.887 100.278 108.875C100.877 108.818 101.453 108.645 101.958 108.38C101.688 107.943 101.359 107.609 101.065 107.333Z" fill="#699DEE"/>
<path d="M139.109 129.898C139.109 130.911 139.462 131.832 140.037 132.58C140.225 132.822 140.448 133.052 140.695 133.248C141.47 133.892 142.492 134.284 143.596 134.284C144.595 134.284 145.523 133.961 146.274 133.409C146.603 133.167 146.897 132.879 147.144 132.568C147.731 131.832 148.072 130.899 148.072 129.886C148.072 127.457 146.063 125.488 143.585 125.488C141.106 125.488 139.109 127.468 139.109 129.898Z" fill="white"/>
<path d="M145.875 132.384C145.875 132.372 145.864 132.361 145.852 132.349C145.828 132.326 145.805 132.303 145.781 132.28C145.723 132.234 145.652 132.2 145.558 132.165C145.558 132.165 145.558 132.165 145.547 132.165C145.159 132.004 144.642 131.947 144.642 131.947C144.501 131.923 144.384 131.912 144.325 131.9C144.172 131.785 143.973 131.313 143.937 130.588C143.937 130.588 144.102 130.208 144.325 130.323C144.677 130.507 145.335 129.759 145.124 128.769C145.1 128.665 145.077 128.562 145.041 128.481C145.112 128.516 145.194 128.539 145.276 128.539C145.476 128.539 145.781 128.032 145.828 127.871C145.875 127.698 145.828 127.146 145.547 126.985C145.276 126.823 144.854 127.008 144.83 127.019C144.971 126.835 145.441 126.87 145.523 126.881C144.431 126.662 144.196 127.353 144.184 127.411C143.491 126.789 142.422 127.86 142.164 128.147C142.14 128.159 142.129 128.182 142.105 128.193C142.046 128.228 141.976 128.286 141.905 128.366C141.764 128.527 141.729 128.735 141.729 128.942C141.729 129.299 141.87 129.621 141.87 129.621C141.929 130.22 142.105 130.956 142.387 130.979C142.387 130.979 142.481 130.979 142.634 130.968C142.634 130.979 142.634 130.979 142.634 130.991C142.634 131.095 142.645 131.21 142.645 131.313V131.382C142.645 131.682 142.622 131.97 142.563 132.004C142.54 132.004 142.516 132.004 142.504 132.004C142.481 132.004 142.422 132.016 142.422 132.016C142.175 132.05 141.999 132.073 141.882 132.096C141.635 132.131 141.576 132.165 141.518 132.211C141.506 132.223 141.494 132.234 141.471 132.257C141.295 132.395 140.966 132.695 140.672 133.282C141.459 133.927 142.469 134.318 143.573 134.318C144.572 134.318 145.5 133.996 146.251 133.443C146.146 132.983 146.005 132.626 145.875 132.384Z" fill="#FDCD51"/>
<path d="M139.109 41.6089C139.109 42.622 139.462 43.543 140.037 44.2913C140.225 44.5331 140.448 44.7633 140.695 44.959C141.47 45.6037 142.492 45.9952 143.596 45.9952C144.595 45.9952 145.523 45.6728 146.274 45.1202C146.603 44.8785 146.897 44.5906 147.144 44.2798C147.731 43.543 148.072 42.6105 148.072 41.5974C148.072 39.1683 146.063 37.1997 143.585 37.1997C141.106 37.1997 139.109 39.1798 139.109 41.6089Z" fill="white"/>
<path d="M145.876 44.0956C145.876 44.0841 145.864 44.0726 145.852 44.0611C145.829 44.038 145.805 44.015 145.782 43.992C145.723 43.9459 145.652 43.9114 145.558 43.8769C145.558 43.8769 145.558 43.8769 145.547 43.8769C145.159 43.7157 144.642 43.6581 144.642 43.6581C144.501 43.6351 144.384 43.6236 144.325 43.6121C144.29 43.5776 144.255 43.5315 144.208 43.4624C144.078 43.2437 143.961 42.8408 143.937 42.2997C143.937 42.2997 144.102 41.9198 144.325 42.0349C144.677 42.2191 145.335 41.4708 145.124 40.4807C145.1 40.3771 145.077 40.2735 145.042 40.1929C145.112 40.2275 145.194 40.2505 145.276 40.2505C145.476 40.2505 145.782 39.7439 145.829 39.5828C145.876 39.4101 145.829 38.8575 145.547 38.6963C145.276 38.5351 144.854 38.7193 144.83 38.7309C144.971 38.5467 145.441 38.5812 145.523 38.5927C144.431 38.374 144.196 39.0647 144.184 39.1223C143.491 38.5006 142.422 39.5713 142.164 39.8591C142.14 39.8706 142.129 39.8936 142.105 39.9051C142.046 39.9397 141.976 39.9972 141.905 40.0778C141.764 40.239 141.729 40.4462 141.729 40.6534C141.729 41.0103 141.87 41.3326 141.87 41.3326C141.929 41.9313 142.105 42.6681 142.387 42.6911C142.387 42.6911 142.481 42.6911 142.634 42.6796C142.634 42.6911 142.634 42.6911 142.634 42.7026C142.634 42.8062 142.645 42.9214 142.645 43.025V43.094C142.645 43.3934 142.622 43.6812 142.563 43.7157C142.54 43.7157 142.516 43.7157 142.504 43.7157C142.481 43.7157 142.422 43.7272 142.422 43.7272C142.175 43.7618 141.999 43.7848 141.882 43.8078C141.635 43.8538 141.576 43.8769 141.518 43.9229C141.506 43.9344 141.494 43.9575 141.471 43.969C141.295 44.0956 140.966 44.4064 140.672 44.9936C140.719 45.0281 140.754 45.0626 140.801 45.0972C140.813 45.0972 140.813 45.1087 140.825 45.1087C140.86 45.1317 140.895 45.1547 140.93 45.1778C140.954 45.2008 140.977 45.2123 141.001 45.2353C141.024 45.2468 141.048 45.2699 141.071 45.2814C141.107 45.3044 141.142 45.3274 141.177 45.3505C141.201 45.362 141.224 45.385 141.248 45.3965C141.283 45.4195 141.306 45.431 141.342 45.4541C141.377 45.4771 141.412 45.4886 141.447 45.5116C141.447 45.5116 141.447 45.5116 141.459 45.5116L141.471 45.5231C141.494 45.5346 141.529 45.5577 141.553 45.5692C141.565 45.5692 141.576 45.5807 141.576 45.5807C141.588 45.5922 141.612 45.5922 141.623 45.6037C141.635 45.6152 141.659 45.6152 141.67 45.6268C141.706 45.6383 141.741 45.6613 141.776 45.6728C141.811 45.6843 141.847 45.7073 141.882 45.7188C141.894 45.7304 141.917 45.7304 141.929 45.7419C141.941 45.7419 141.964 45.7534 141.976 45.7649C142.011 45.7764 142.046 45.7879 142.082 45.7994C142.117 45.8109 142.152 45.8225 142.187 45.834C142.222 45.8455 142.246 45.857 142.281 45.857H142.293C142.316 45.857 142.328 45.8685 142.352 45.8685C142.457 45.903 142.563 45.9261 142.681 45.9376C142.728 45.9491 142.775 45.9606 142.822 45.9606C142.833 45.9606 142.845 45.9606 142.857 45.9606H142.869C142.904 45.9606 142.927 45.9721 142.962 45.9721C142.974 45.9721 142.974 45.9721 142.986 45.9721H142.998C143.033 45.9721 143.056 45.9836 143.08 45.9836H143.092C143.103 45.9836 143.115 45.9836 143.115 45.9836C143.162 45.9836 143.221 45.9951 143.268 45.9951H143.28C143.291 45.9951 143.315 45.9951 143.327 45.9951C143.338 45.9951 143.35 45.9951 143.362 45.9951C143.409 45.9951 143.468 45.9951 143.515 45.9951C144.513 45.9951 145.441 45.6728 146.193 45.1202C146.146 44.7058 146.005 44.3374 145.876 44.0956Z" fill="#FDCD51"/>
<path d="M199.93 216.021L183.791 224.218H173.043C170.447 222.514 156.998 213.523 151.431 206.811C150.256 205.395 145.933 193.134 142.621 183.199C143.067 184.523 152.323 203.841 154.954 206.04C157.586 208.239 171.434 221.029 175.252 220.891C178.952 220.764 198.661 216.32 199.883 216.044C199.895 216.032 199.906 216.032 199.93 216.021Z" fill="#FDCD51"/>
<path d="M232.408 224.218H174.207C177.12 223.09 188.29 218.911 199.872 216.044C199.895 216.044 199.907 216.033 199.931 216.033C209.868 213.569 220.11 212.072 225.666 214.317L225.701 214.375L232.408 224.218Z" fill="#D2E3FC"/>
<path d="M138.653 148.881C139.64 148.524 141.014 148.294 141.683 149.388C142.729 151.091 138.853 166.15 138.371 168.038L138.653 148.881Z" fill="#FDCD51"/>
<path d="M138.946 140.788L138.617 149.894C138.617 149.894 140.567 150.205 141.683 149.388C142.799 148.57 142.2 140.673 138.946 140.788Z" fill="#FDCD51"/>
<path d="M99.8545 193.515C94.2634 194.643 82.212 190.337 82.212 190.337L84.1618 171.929L70.5364 187.217C63.6063 184.685 52.7647 178.088 46.3279 173.99C62.831 172.228 75.1526 156.26 75.1526 156.26C86.5933 162.339 99.5139 165.885 99.5139 165.885C99.5021 176.81 99.8545 193.515 99.8545 193.515Z" fill="#CBE1FD"/>
<path d="M61.4806 176.799C61.4923 175.567 62.5142 174.588 63.771 174.6C65.0279 174.611 66.0263 175.613 66.0145 176.845C66.0028 178.076 64.9809 179.055 63.724 179.044C62.4672 179.021 61.4688 178.019 61.4806 176.799Z" fill="#FFDB7D"/>
</g>
<defs>
<clipPath id="clip0_32_267">
<rect width="228" height="203" fill="white" transform="translate(5 22)"/>
</clipPath>
</defs>
</svg>
