<svg width="1920" height="677" viewBox="0 0 1920 677" fill="none" xmlns="http://www.w3.org/2000/svg">
<rect width="1920" height="677" fill="#222222"/>
<rect x="816" y="52" width="743" height="535" rx="29.8327" fill="white"/>
<path d="M898.38 292H895.024V273.976H898.38V287.102L906.858 273.976H910.214V292H906.858V278.874L898.38 292ZM916.534 292H913.252V278.625H918.299L921.357 288.221L924.39 278.625H929.436V292H926.155V281.409L922.55 292H920.139L916.534 281.409V292ZM935.579 292H931.651L935.33 286.531C934.518 286.067 933.896 285.553 933.465 284.989C933.051 284.409 932.844 283.688 932.844 282.826C932.844 281.484 933.3 280.448 934.211 279.719C935.123 278.99 936.449 278.625 938.189 278.625H944.18V292H940.75V287.5H938.487L935.579 292ZM938.438 284.815H940.75V281.31H938.363C936.904 281.31 936.175 281.898 936.175 283.075C936.175 284.235 936.929 284.815 938.438 284.815Z" fill="black" fill-opacity="0.5"/>
<path d="M1035.68 292L1042.39 273.976H1045.97L1052.71 292H1048.85L1047.58 288.345H1040.57L1039.31 292H1035.68ZM1044.08 278.327L1041.59 285.437H1046.57L1044.08 278.327ZM1060.95 289.688C1061.84 289.688 1062.57 289.29 1063.13 288.495C1063.71 287.683 1064 286.63 1064 285.337C1064 284.045 1063.71 282.992 1063.13 282.18C1062.57 281.368 1061.84 280.962 1060.95 280.962C1060 280.962 1059.24 281.351 1058.66 282.13C1058.09 282.909 1057.81 283.97 1057.81 285.312C1057.81 286.672 1058.09 287.741 1058.66 288.52C1059.22 289.298 1059.98 289.688 1060.95 289.688ZM1057.94 296.351H1054.51V278.625H1057.94V280.34C1058.3 279.711 1058.82 279.222 1059.5 278.874C1060.18 278.509 1060.95 278.327 1061.79 278.327C1063.43 278.327 1064.81 278.973 1065.92 280.266C1067.04 281.559 1067.61 283.241 1067.61 285.312C1067.61 287.401 1067.04 289.091 1065.92 290.384C1064.79 291.677 1063.41 292.323 1061.77 292.323C1059.99 292.323 1058.72 291.652 1057.94 290.309V296.351ZM1076.14 292H1072.71V281.335H1068.36V278.625H1080.49V281.335H1076.14V292ZM1083.79 296.351H1082.35V293.715H1083.64C1084.01 293.715 1084.26 293.707 1084.41 293.691C1084.56 293.674 1084.73 293.624 1084.93 293.541C1085.15 293.458 1085.32 293.318 1085.46 293.119C1085.59 292.936 1085.73 292.671 1085.88 292.323L1086.03 291.95L1080.91 278.625H1084.66L1087.69 288.271L1090.8 278.625H1094.28L1089.38 291.602C1088.59 293.691 1087.87 295 1087.22 295.53C1086.59 296.077 1085.45 296.351 1083.79 296.351ZM1102.48 289.688C1103.38 289.688 1104.11 289.29 1104.67 288.495C1105.25 287.683 1105.54 286.63 1105.54 285.337C1105.54 284.045 1105.25 282.992 1104.67 282.18C1104.11 281.368 1103.38 280.962 1102.48 280.962C1101.54 280.962 1100.78 281.351 1100.2 282.13C1099.63 282.909 1099.35 283.97 1099.35 285.312C1099.35 286.672 1099.63 287.741 1100.2 288.52C1100.76 289.298 1101.52 289.688 1102.48 289.688ZM1099.48 296.351H1096.05V278.625H1099.48V280.34C1099.84 279.711 1100.36 279.222 1101.04 278.874C1101.72 278.509 1102.48 278.327 1103.33 278.327C1104.97 278.327 1106.35 278.973 1107.46 280.266C1108.58 281.559 1109.15 283.241 1109.15 285.312C1109.15 287.401 1108.58 289.091 1107.46 290.384C1106.33 291.677 1104.95 292.323 1103.31 292.323C1101.53 292.323 1100.26 291.652 1099.48 290.309V296.351Z" fill="black" fill-opacity="0.5"/>
<path d="M901.657 401.386H898.101V383.363H912.943V401.386H909.388V386.246H901.657V401.386ZM924.553 391.542C923.972 390.779 923.194 390.398 922.216 390.398C921.238 390.398 920.451 390.779 919.854 391.542C919.274 392.287 918.984 393.348 918.984 394.724C918.984 396.099 919.274 397.16 919.854 397.906C920.451 398.652 921.238 399.025 922.216 399.025C923.194 399.025 923.972 398.652 924.553 397.906C925.149 397.16 925.448 396.099 925.448 394.724C925.448 393.348 925.149 392.287 924.553 391.542ZM926.939 399.87C925.613 401.096 924.039 401.71 922.216 401.71C920.393 401.71 918.818 401.096 917.492 399.87C916.166 398.644 915.503 396.928 915.503 394.724C915.503 392.503 916.166 390.779 917.492 389.553C918.818 388.326 920.393 387.713 922.216 387.713C924.039 387.713 925.613 388.326 926.939 389.553C928.265 390.779 928.928 392.503 928.928 394.724C928.928 396.928 928.265 398.644 926.939 399.87ZM942.099 401.386H938.668V396.389C937.243 396.721 936.041 396.887 935.064 396.887C932.064 396.887 930.564 395.461 930.564 392.611V388.011H933.995V392.014C933.995 392.743 934.177 393.29 934.541 393.655C934.923 394.003 935.552 394.177 936.431 394.177C937.077 394.177 937.823 394.069 938.668 393.854V388.011H942.099V401.386ZM951.975 401.386H948.544V390.721H944.193V388.011H956.325V390.721H951.975V401.386ZM966.145 396.265V395.271C964.123 395.486 962.723 395.751 961.944 396.066C961.165 396.381 960.775 396.895 960.775 397.608C960.775 398.121 960.974 398.544 961.372 398.876C961.77 399.207 962.342 399.373 963.087 399.373C965.126 399.373 966.145 398.337 966.145 396.265ZM966.444 399.721C965.516 401.047 964.057 401.71 962.068 401.71C960.742 401.71 959.607 401.353 958.662 400.641C957.718 399.911 957.245 398.958 957.245 397.782C957.245 397.019 957.444 396.365 957.842 395.818C958.256 395.271 958.878 394.823 959.706 394.475C960.535 394.111 961.438 393.829 962.416 393.63C963.394 393.431 964.604 393.249 966.046 393.083V392.859C966.046 391.003 965.209 390.075 963.535 390.075C962.839 390.075 962.259 390.257 961.795 390.622C961.331 390.986 961.082 391.525 961.049 392.238H957.842C957.974 390.879 958.563 389.777 959.607 388.931C960.651 388.086 962.018 387.663 963.709 387.663C967.554 387.663 969.477 389.627 969.477 393.555C969.477 393.622 969.468 394.094 969.452 394.972C969.435 395.834 969.427 396.497 969.427 396.961C969.427 398.834 969.559 400.309 969.825 401.386H966.667C966.618 401.171 966.543 400.616 966.444 399.721Z" fill="black" fill-opacity="0.5"/>
<path d="M1049.39 388.011V389.777C1050.17 388.401 1051.46 387.713 1053.27 387.713C1056.35 387.713 1057.89 389.462 1057.89 392.959V401.386H1054.46V393.705C1054.46 392.71 1054.3 391.923 1053.96 391.343C1053.65 390.763 1053.04 390.473 1052.15 390.473C1051.11 390.473 1050.38 390.829 1049.99 391.542C1049.59 392.254 1049.39 393.216 1049.39 394.426V401.386H1045.96V388.011H1049.39ZM1069.12 396.265V395.271C1067.1 395.486 1065.7 395.751 1064.92 396.066C1064.14 396.381 1063.75 396.895 1063.75 397.608C1063.75 398.121 1063.95 398.544 1064.35 398.876C1064.75 399.207 1065.32 399.373 1066.06 399.373C1068.1 399.373 1069.12 398.337 1069.12 396.265ZM1069.42 399.721C1068.49 401.047 1067.03 401.71 1065.04 401.71C1063.72 401.71 1062.58 401.353 1061.64 400.641C1060.69 399.911 1060.22 398.958 1060.22 397.782C1060.22 397.019 1060.42 396.365 1060.82 395.818C1061.23 395.271 1061.85 394.823 1062.68 394.475C1063.51 394.111 1064.41 393.829 1065.39 393.63C1066.37 393.431 1067.58 393.249 1069.02 393.083V392.859C1069.02 391.003 1068.19 390.075 1066.51 390.075C1065.82 390.075 1065.24 390.257 1064.77 390.622C1064.31 390.986 1064.06 391.525 1064.03 392.238H1060.82C1060.95 390.879 1061.54 389.777 1062.58 388.931C1063.63 388.086 1064.99 387.663 1066.69 387.663C1070.53 387.663 1072.45 389.627 1072.45 393.555C1072.45 393.622 1072.44 394.094 1072.43 394.972C1072.41 395.834 1072.4 396.497 1072.4 396.961C1072.4 398.834 1072.54 400.309 1072.8 401.386H1069.64C1069.59 401.171 1069.52 400.616 1069.42 399.721ZM1091.77 401.386V393.605C1091.77 393.158 1091.74 392.785 1091.69 392.486C1091.66 392.171 1091.58 391.848 1091.45 391.517C1091.33 391.169 1091.11 390.912 1090.8 390.746C1090.5 390.564 1090.11 390.473 1089.63 390.473C1088.59 390.473 1087.88 390.829 1087.52 391.542C1087.15 392.254 1086.97 393.216 1086.97 394.426V401.386H1083.54V393.605C1083.54 393.158 1083.51 392.785 1083.47 392.486C1083.43 392.171 1083.35 391.848 1083.22 391.517C1083.1 391.169 1082.89 390.912 1082.57 390.746C1082.27 390.564 1081.88 390.473 1081.4 390.473C1080.36 390.473 1079.65 390.829 1079.29 391.542C1078.92 392.254 1078.74 393.216 1078.74 394.426V401.386H1075.31V388.011H1078.74V389.777C1079.55 388.401 1080.8 387.713 1082.47 387.713C1084.23 387.713 1085.5 388.442 1086.27 389.901C1087.32 388.442 1088.79 387.713 1090.67 387.713C1093.69 387.713 1095.2 389.462 1095.2 392.959V401.386H1091.77ZM1110.49 395.644H1100.62C1100.72 396.738 1101.08 397.583 1101.71 398.179C1102.36 398.76 1103.12 399.05 1104 399.05C1105.26 399.05 1106.2 398.536 1106.81 397.508H1110.34C1109.93 398.668 1109.19 399.663 1108.13 400.491C1107.07 401.304 1105.7 401.71 1104.03 401.71C1101.94 401.71 1100.28 401.038 1099.05 399.696C1097.83 398.337 1097.21 396.655 1097.21 394.649C1097.21 392.644 1097.84 390.986 1099.08 389.677C1100.34 388.368 1101.95 387.713 1103.93 387.713C1105.98 387.713 1107.61 388.442 1108.8 389.901C1109.99 391.359 1110.56 393.274 1110.49 395.644ZM1103.9 390.224C1103.14 390.224 1102.44 390.473 1101.81 390.97C1101.18 391.467 1100.8 392.238 1100.67 393.282H1107.01C1106.98 392.238 1106.65 391.467 1106.04 390.97C1105.44 390.473 1104.73 390.224 1103.9 390.224ZM1121.3 389.155C1120.41 389.155 1119.68 389.545 1119.14 390.324C1118.61 391.086 1118.34 392.006 1118.34 393.083C1118.34 394.823 1119.03 395.693 1120.41 395.693C1121.35 395.693 1122.1 395.296 1122.64 394.5C1123.19 393.705 1123.46 392.735 1123.46 391.591C1123.46 390.812 1123.27 390.216 1122.89 389.801C1122.53 389.371 1122 389.155 1121.3 389.155ZM1126.2 397.583C1125.52 397.583 1124.95 397.384 1124.48 396.986C1124.02 396.588 1123.74 396.025 1123.64 395.296C1122.84 396.771 1121.58 397.508 1119.86 397.508C1118.81 397.508 1117.94 397.135 1117.22 396.389C1116.53 395.644 1116.18 394.533 1116.18 393.058C1116.18 391.533 1116.64 390.191 1117.57 389.031C1118.52 387.871 1119.75 387.291 1121.28 387.291C1122.67 387.291 1123.62 387.92 1124.13 389.18C1124.15 389.064 1124.18 388.84 1124.21 388.509C1124.26 388.161 1124.3 387.895 1124.33 387.713H1126.1L1125.38 393.133C1125.31 393.464 1125.28 393.796 1125.28 394.127C1125.28 395.238 1125.66 395.793 1126.42 395.793C1127.08 395.793 1127.64 395.395 1128.09 394.6C1128.55 393.804 1128.78 392.735 1128.78 391.393C1128.78 389.371 1128.15 387.821 1126.89 386.744C1125.63 385.65 1123.96 385.103 1121.87 385.103C1119.6 385.103 1117.75 385.832 1116.3 387.291C1114.86 388.749 1114.14 390.58 1114.14 392.785C1114.14 394.906 1114.77 396.622 1116.03 397.931C1117.29 399.24 1118.95 399.895 1121 399.895C1122.68 399.895 1124.25 399.539 1125.73 398.826L1126.42 400.491C1124.78 401.304 1122.97 401.71 1121 401.71C1118.38 401.71 1116.25 400.873 1114.61 399.199C1112.97 397.525 1112.15 395.362 1112.15 392.71C1112.15 390.058 1113.09 387.837 1114.96 386.047C1116.83 384.258 1119.15 383.363 1121.92 383.363C1123.58 383.363 1125.05 383.636 1126.32 384.183C1127.62 384.73 1128.67 385.617 1129.48 386.843C1130.29 388.053 1130.7 389.536 1130.7 391.293C1130.7 393.216 1130.25 394.749 1129.36 395.892C1128.46 397.019 1127.41 397.583 1126.2 397.583ZM1139.03 398.304C1139.98 398.304 1140.72 397.939 1141.27 397.21C1141.83 396.481 1142.11 395.511 1142.11 394.301C1142.11 393.108 1141.83 392.147 1141.27 391.417C1140.72 390.688 1139.98 390.324 1139.03 390.324C1138.15 390.324 1137.42 390.713 1136.82 391.492C1136.24 392.254 1135.95 393.199 1135.95 394.326C1135.95 395.437 1136.24 396.381 1136.82 397.16C1137.42 397.923 1138.15 398.304 1139.03 398.304ZM1141.99 388.011H1145.4V400.044C1145.4 402.165 1144.83 403.699 1143.7 404.643C1142.59 405.588 1140.97 406.06 1138.83 406.06C1137.26 406.06 1135.94 405.729 1134.88 405.066C1133.84 404.419 1133.21 403.367 1132.99 401.909H1136.25C1136.55 403.002 1137.46 403.549 1139.01 403.549C1141 403.549 1141.99 402.596 1141.99 400.69V398.9C1141.19 400.243 1139.92 400.914 1138.16 400.914C1136.5 400.914 1135.12 400.301 1134.01 399.074C1132.9 397.831 1132.34 396.24 1132.34 394.301C1132.34 392.395 1132.89 390.821 1133.98 389.578C1135.09 388.335 1136.49 387.713 1138.16 387.713C1138.99 387.713 1139.76 387.904 1140.47 388.285C1141.19 388.666 1141.69 389.155 1141.99 389.752V388.011ZM1164.97 401.386V393.605C1164.97 393.158 1164.94 392.785 1164.89 392.486C1164.86 392.171 1164.78 391.848 1164.64 391.517C1164.53 391.169 1164.31 390.912 1164 390.746C1163.7 390.564 1163.31 390.473 1162.83 390.473C1161.78 390.473 1161.08 390.829 1160.72 391.542C1160.35 392.254 1160.17 393.216 1160.17 394.426V401.386H1156.74V393.605C1156.74 393.158 1156.71 392.785 1156.66 392.486C1156.63 392.171 1156.55 391.848 1156.41 391.517C1156.3 391.169 1156.08 390.912 1155.77 390.746C1155.47 390.564 1155.08 390.473 1154.6 390.473C1153.56 390.473 1152.85 390.829 1152.49 391.542C1152.12 392.254 1151.94 393.216 1151.94 394.426V401.386H1148.51V388.011H1151.94V389.777C1152.75 388.401 1153.99 387.713 1155.67 387.713C1157.43 387.713 1158.69 388.442 1159.47 389.901C1160.52 388.442 1161.98 387.713 1163.87 387.713C1166.89 387.713 1168.4 389.462 1168.4 392.959V401.386H1164.97ZM1179.63 396.265V395.271C1177.61 395.486 1176.21 395.751 1175.43 396.066C1174.65 396.381 1174.26 396.895 1174.26 397.608C1174.26 398.121 1174.46 398.544 1174.86 398.876C1175.26 399.207 1175.83 399.373 1176.58 399.373C1178.62 399.373 1179.63 398.337 1179.63 396.265ZM1179.93 399.721C1179 401.047 1177.55 401.71 1175.56 401.71C1174.23 401.71 1173.1 401.353 1172.15 400.641C1171.21 399.911 1170.73 398.958 1170.73 397.782C1170.73 397.019 1170.93 396.365 1171.33 395.818C1171.75 395.271 1172.37 394.823 1173.2 394.475C1174.02 394.111 1174.93 393.829 1175.91 393.63C1176.88 393.431 1178.09 393.249 1179.54 393.083V392.859C1179.54 391.003 1178.7 390.075 1177.02 390.075C1176.33 390.075 1175.75 390.257 1175.28 390.622C1174.82 390.986 1174.57 391.525 1174.54 392.238H1171.33C1171.46 390.879 1172.05 389.777 1173.1 388.931C1174.14 388.086 1175.51 387.663 1177.2 387.663C1181.04 387.663 1182.97 389.627 1182.97 393.555C1182.97 393.622 1182.96 394.094 1182.94 394.972C1182.92 395.834 1182.92 396.497 1182.92 396.961C1182.92 398.834 1183.05 400.309 1183.31 401.386H1180.16C1180.11 401.171 1180.03 400.616 1179.93 399.721ZM1185.82 388.011H1189.25V401.386H1185.82V388.011ZM1185.82 383.363H1189.25V386.545H1185.82V383.363ZM1195.76 383.363V401.386H1192.33V383.363H1195.76ZM1202.24 401.386H1198.56V397.657H1202.24V401.386ZM1210.7 387.713C1212.21 387.713 1213.53 388.136 1214.68 388.981C1215.84 389.81 1216.53 391.011 1216.77 392.586H1213.48C1213.35 391.939 1213.02 391.409 1212.49 390.995C1211.96 390.58 1211.36 390.373 1210.7 390.373C1209.77 390.373 1209 390.754 1208.39 391.517C1207.79 392.279 1207.49 393.332 1207.49 394.674C1207.49 396.05 1207.79 397.127 1208.39 397.906C1208.98 398.668 1209.76 399.05 1210.73 399.05C1211.37 399.05 1211.96 398.867 1212.49 398.503C1213.02 398.138 1213.39 397.583 1213.61 396.837H1216.89C1216.53 398.544 1215.76 399.787 1214.6 400.566C1213.44 401.328 1212.09 401.71 1210.55 401.71C1208.58 401.71 1206.99 401.063 1205.78 399.771C1204.58 398.461 1203.99 396.779 1203.99 394.724C1203.99 392.669 1204.61 390.986 1205.85 389.677C1207.1 388.368 1208.71 387.713 1210.7 387.713ZM1227.21 391.542C1226.63 390.779 1225.86 390.398 1224.88 390.398C1223.9 390.398 1223.11 390.779 1222.52 391.542C1221.94 392.287 1221.65 393.348 1221.65 394.724C1221.65 396.099 1221.94 397.16 1222.52 397.906C1223.11 398.652 1223.9 399.025 1224.88 399.025C1225.86 399.025 1226.63 398.652 1227.21 397.906C1227.81 397.16 1228.11 396.099 1228.11 394.724C1228.11 393.348 1227.81 392.287 1227.21 391.542ZM1229.6 399.87C1228.28 401.096 1226.7 401.71 1224.88 401.71C1223.05 401.71 1221.48 401.096 1220.15 399.87C1218.83 398.644 1218.17 396.928 1218.17 394.724C1218.17 392.503 1218.83 390.779 1220.15 389.553C1221.48 388.326 1223.05 387.713 1224.88 387.713C1226.7 387.713 1228.28 388.326 1229.6 389.553C1230.93 390.779 1231.59 392.503 1231.59 394.724C1231.59 396.928 1230.93 398.644 1229.6 399.87ZM1250.23 401.386V393.605C1250.23 393.158 1250.21 392.785 1250.16 392.486C1250.12 392.171 1250.04 391.848 1249.91 391.517C1249.79 391.169 1249.58 390.912 1249.26 390.746C1248.96 390.564 1248.57 390.473 1248.09 390.473C1247.05 390.473 1246.34 390.829 1245.98 391.542C1245.61 392.254 1245.43 393.216 1245.43 394.426V401.386H1242V393.605C1242 393.158 1241.98 392.785 1241.93 392.486C1241.89 392.171 1241.81 391.848 1241.68 391.517C1241.56 391.169 1241.35 390.912 1241.03 390.746C1240.73 390.564 1240.34 390.473 1239.86 390.473C1238.82 390.473 1238.12 390.829 1237.75 391.542C1237.39 392.254 1237.2 393.216 1237.2 394.426V401.386H1233.77V388.011H1237.2V389.777C1238.02 388.401 1239.26 387.713 1240.93 387.713C1242.69 387.713 1243.96 388.442 1244.74 389.901C1245.78 388.442 1247.25 387.713 1249.14 387.713C1252.15 387.713 1253.66 389.462 1253.66 392.959V401.386H1250.23Z" fill="black" fill-opacity="0.5"/>
<path d="M892.99 308.766H1509.53" stroke="black" stroke-opacity="0.5" stroke-width="2.98327" stroke-linecap="round"/>
<path d="M892.99 418.152H1509.53" stroke="black" stroke-opacity="0.5" stroke-width="2.98327" stroke-linecap="round"/>
<rect x="891" y="469" width="240" height="55" rx="19.8885" fill="#FF671B"/>
<path d="M972.787 507H969.212V488.875H972.787V497.6H972.812L979.337 488.875H983.337L976.612 497.525L983.612 507H979.462L972.812 498.025H972.787V507ZM985.447 511.375H983.997V508.725H985.297C985.663 508.725 985.922 508.717 986.072 508.7C986.222 508.683 986.397 508.633 986.597 508.55C986.813 508.467 986.988 508.325 987.122 508.125C987.255 507.942 987.397 507.675 987.547 507.325L987.697 506.95L982.547 493.55H986.322L989.372 503.25L992.497 493.55H995.997L991.072 506.6C990.272 508.7 989.547 510.017 988.897 510.55C988.263 511.1 987.113 511.375 985.447 511.375ZM1001.22 507H997.771V493.55H1009.8V507H1006.35V496.275H1001.22V507ZM1016.7 507H1013.25V493.55H1016.62V502.725L1022.55 493.55H1026V507H1022.62V498.15L1016.7 507ZM1035.94 507H1032.49V496.275H1028.11V493.55H1040.31V496.275H1035.94V507ZM1048.75 507H1042.4V493.55H1045.85V497.925H1048.63C1050.51 497.925 1051.88 498.292 1052.73 499.025C1053.59 499.742 1054.03 500.867 1054.03 502.4C1054.03 504.083 1053.6 505.275 1052.75 505.975C1051.9 506.658 1050.57 507 1048.75 507ZM1045.85 500.625V504.3H1048.33C1049.14 504.3 1049.74 504.15 1050.13 503.85C1050.51 503.55 1050.7 503.05 1050.7 502.35C1050.7 501.733 1050.5 501.292 1050.1 501.025C1049.72 500.758 1049.12 500.625 1048.3 500.625H1045.85Z" fill="white"/>
<path d="M894.821 147.452C891.782 147.452 889.392 146.698 887.651 145.19C885.934 143.659 884.937 141.582 884.658 138.96H889.427C889.635 140.422 890.215 141.547 891.167 142.336C892.118 143.125 893.359 143.52 894.891 143.52C896.422 143.52 897.594 143.171 898.406 142.475C899.241 141.779 899.659 140.805 899.659 139.552C899.659 138.438 899.253 137.579 898.441 136.976C897.629 136.35 896.457 136.036 894.926 136.036H891.932V131.999H894.647C895.947 131.999 897.002 131.721 897.814 131.164C898.627 130.584 899.044 129.783 899.067 128.762C899.044 127.625 898.638 126.767 897.849 126.187C897.084 125.583 896.074 125.282 894.821 125.282C893.452 125.282 892.257 125.699 891.236 126.535C890.239 127.37 889.717 128.472 889.67 129.841H884.902C885.134 127.312 886.166 125.27 888 123.716C889.856 122.138 892.257 121.349 895.204 121.349C897.896 121.349 900.054 121.964 901.678 123.193C903.302 124.4 904.114 126.059 904.114 128.171C904.091 130.584 902.896 132.394 900.529 133.6C903.314 134.528 904.706 136.547 904.706 139.656C904.706 142.232 903.754 144.181 901.852 145.503C899.972 146.803 897.629 147.452 894.821 147.452ZM920.125 139.83V138.438C917.294 138.74 915.333 139.111 914.243 139.552C913.152 139.993 912.607 140.712 912.607 141.71C912.607 142.429 912.886 143.021 913.442 143.485C913.999 143.949 914.8 144.181 915.844 144.181C918.698 144.181 920.125 142.731 920.125 139.83ZM920.543 144.668C919.243 146.524 917.201 147.452 914.417 147.452C912.561 147.452 910.971 146.954 909.649 145.956C908.326 144.935 907.665 143.601 907.665 141.953C907.665 140.886 907.943 139.969 908.5 139.204C909.08 138.438 909.95 137.812 911.11 137.324C912.271 136.814 913.535 136.419 914.904 136.141C916.273 135.862 917.967 135.607 919.986 135.375V135.062C919.986 132.463 918.814 131.164 916.47 131.164C915.496 131.164 914.684 131.419 914.034 131.93C913.384 132.44 913.036 133.194 912.99 134.192H908.5C908.686 132.289 909.509 130.746 910.971 129.563C912.433 128.379 914.347 127.788 916.714 127.788C922.097 127.788 924.789 130.537 924.789 136.036C924.789 136.129 924.777 136.791 924.754 138.02C924.731 139.227 924.719 140.155 924.719 140.805C924.719 143.427 924.905 145.492 925.276 147H920.856C920.786 146.698 920.682 145.921 920.543 144.668ZM933.837 147H929.034V128.275H945.775V147H940.972V132.069H933.837V147ZM961.755 133.217C960.943 132.15 959.852 131.616 958.483 131.616C957.114 131.616 956.012 132.15 955.177 133.217C954.365 134.261 953.959 135.746 953.959 137.672C953.959 139.598 954.365 141.083 955.177 142.127C956.012 143.171 957.114 143.694 958.483 143.694C959.852 143.694 960.943 143.171 961.755 142.127C962.59 141.083 963.008 139.598 963.008 137.672C963.008 135.746 962.59 134.261 961.755 133.217ZM965.096 144.877C963.24 146.594 961.036 147.452 958.483 147.452C955.931 147.452 953.727 146.594 951.87 144.877C950.014 143.16 949.086 140.758 949.086 137.672C949.086 134.563 950.014 132.15 951.87 130.433C953.727 128.716 955.931 127.857 958.483 127.857C961.036 127.857 963.24 128.716 965.096 130.433C966.953 132.15 967.881 134.563 967.881 137.672C967.881 140.758 966.953 143.16 965.096 144.877ZM969.972 147H969.067V143.206H969.519C970.494 143.206 971.201 142.545 971.642 141.222C972.106 139.9 972.431 137.545 972.617 134.157L972.965 128.275H987.096V147H982.293V132.069H977.455L977.176 136.524C976.967 140.097 976.283 142.742 975.123 144.459C973.986 146.153 972.269 147 969.972 147ZM996.716 147H991.913V128.275H996.716V135.514H1004.51V128.275H1009.32V147H1004.51V139.308H996.716V147ZM1018.91 147H1014.11V128.275H1018.81V141.048L1027.06 128.275H1031.86V147H1027.16V134.679L1018.91 147ZM1045.69 147H1040.89V132.069H1034.8V128.275H1051.78V132.069H1045.69V147ZM1071.41 138.96H1057.59C1057.73 140.491 1058.24 141.675 1059.12 142.51C1060.03 143.322 1061.09 143.728 1062.32 143.728C1064.09 143.728 1065.4 143.009 1066.26 141.57H1071.2C1070.62 143.195 1069.59 144.587 1068.1 145.747C1066.62 146.884 1064.7 147.452 1062.36 147.452C1059.43 147.452 1057.11 146.513 1055.4 144.633C1053.68 142.731 1052.82 140.375 1052.82 137.568C1052.82 134.76 1053.69 132.44 1055.43 130.607C1057.2 128.774 1059.46 127.857 1062.22 127.857C1065.1 127.857 1067.37 128.878 1069.04 130.92C1070.71 132.962 1071.5 135.642 1071.41 138.96ZM1062.18 131.373C1061.12 131.373 1060.14 131.721 1059.26 132.417C1058.38 133.113 1057.85 134.192 1057.66 135.654H1066.53C1066.49 134.192 1066.04 133.113 1065.18 132.417C1064.34 131.721 1063.34 131.373 1062.18 131.373ZM1095.37 153.091H1090.85V147.244C1088.01 147.244 1085.72 146.466 1083.95 144.912C1082.19 143.357 1081.31 140.967 1081.31 137.742C1081.31 134.633 1082.2 132.278 1083.99 130.677C1085.78 129.076 1088.06 128.275 1090.85 128.275V121.766H1095.37V128.275C1098.15 128.275 1100.44 129.076 1102.23 130.677C1104.01 132.278 1104.91 134.633 1104.91 137.742C1104.91 140.967 1104.02 143.357 1102.26 144.912C1100.5 146.466 1098.2 147.244 1095.37 147.244V153.091ZM1090.85 143.52V131.999C1087.74 131.999 1086.18 133.971 1086.18 137.916C1086.18 139.958 1086.58 141.408 1087.36 142.267C1088.15 143.102 1089.31 143.52 1090.85 143.52ZM1095.37 131.999V143.52C1096.9 143.52 1098.06 143.102 1098.85 142.267C1099.64 141.408 1100.03 139.958 1100.03 137.916C1100.03 133.971 1098.48 131.999 1095.37 131.999ZM1119.87 133.217C1119.06 132.15 1117.97 131.616 1116.6 131.616C1115.23 131.616 1114.13 132.15 1113.29 133.217C1112.48 134.261 1112.08 135.746 1112.08 137.672C1112.08 139.598 1112.48 141.083 1113.29 142.127C1114.13 143.171 1115.23 143.694 1116.6 143.694C1117.97 143.694 1119.06 143.171 1119.87 142.127C1120.71 141.083 1121.13 139.598 1121.13 137.672C1121.13 135.746 1120.71 134.261 1119.87 133.217ZM1123.21 144.877C1121.36 146.594 1119.15 147.452 1116.6 147.452C1114.05 147.452 1111.84 146.594 1109.99 144.877C1108.13 143.16 1107.2 140.758 1107.2 137.672C1107.2 134.563 1108.13 132.15 1109.99 130.433C1111.84 128.716 1114.05 127.857 1116.6 127.857C1119.15 127.857 1121.36 128.716 1123.21 130.433C1125.07 132.15 1126 134.563 1126 137.672C1126 140.758 1125.07 143.16 1123.21 144.877ZM1138.31 143.763C1139.56 143.763 1140.59 143.206 1141.37 142.093C1142.19 140.956 1142.59 139.482 1142.59 137.672C1142.59 135.862 1142.19 134.389 1141.37 133.252C1140.59 132.115 1139.56 131.547 1138.31 131.547C1136.99 131.547 1135.92 132.092 1135.11 133.182C1134.32 134.273 1133.93 135.758 1133.93 137.637C1133.93 139.54 1134.32 141.037 1135.11 142.127C1135.9 143.218 1136.97 143.763 1138.31 143.763ZM1134.1 153.091H1129.3V128.275H1134.1V130.677C1134.61 129.795 1135.34 129.11 1136.29 128.623C1137.24 128.113 1138.31 127.857 1139.5 127.857C1141.79 127.857 1143.72 128.762 1145.27 130.572C1146.85 132.382 1147.64 134.737 1147.64 137.637C1147.64 140.561 1146.85 142.928 1145.27 144.738C1143.69 146.548 1141.76 147.452 1139.46 147.452C1136.98 147.452 1135.19 146.513 1134.1 144.633V153.091ZM1155.58 147H1150.98V128.275H1158.05L1162.33 141.71L1166.57 128.275H1173.64V147H1169.05V132.173L1164 147H1160.62L1155.58 132.173V147ZM1180.15 153.091H1178.13V149.402H1179.94C1180.45 149.402 1180.81 149.39 1181.02 149.367C1181.23 149.344 1181.47 149.274 1181.75 149.158C1182.05 149.042 1182.3 148.845 1182.48 148.566C1182.67 148.311 1182.87 147.94 1183.07 147.452L1183.28 146.93L1176.11 128.275H1181.37L1185.62 141.779L1189.97 128.275H1194.84L1187.98 146.443C1186.87 149.367 1185.86 151.2 1184.95 151.942C1184.07 152.708 1182.47 153.091 1180.15 153.091Z" fill="black"/>
<rect x="362" y="52" width="454" height="535" rx="29.8327" fill="white"/>
<path d="M469.546 140.166H476.308C475.844 143.879 474.186 146.895 471.336 149.216C468.485 151.503 464.938 152.646 460.695 152.646C455.392 152.646 451.248 150.972 448.265 147.625C445.315 144.243 443.84 139.636 443.84 133.802C443.84 128.101 445.364 123.593 448.414 120.278C451.497 116.963 455.657 115.306 460.894 115.306C465.104 115.306 468.568 116.416 471.286 118.637C474.037 120.858 475.711 123.858 476.308 127.637H469.546C468.352 123.195 465.452 120.974 460.844 120.974C458.027 120.974 455.706 122.101 453.883 124.355C452.093 126.609 451.198 129.758 451.198 133.802C451.198 137.945 452.077 141.177 453.834 143.498C455.624 145.818 457.878 146.978 460.596 146.978C465.468 146.978 468.452 144.708 469.546 140.166ZM494.046 152H487.184V130.67H478.483V125.25H502.747V130.67H494.046V152ZM522.28 132.31C521.12 130.786 519.562 130.023 517.607 130.023C515.651 130.023 514.076 130.786 512.883 132.31C511.723 133.802 511.143 135.923 511.143 138.675C511.143 141.426 511.723 143.547 512.883 145.039C514.076 146.531 515.651 147.276 517.607 147.276C519.562 147.276 521.12 146.531 522.28 145.039C523.474 143.547 524.07 141.426 524.07 138.675C524.07 135.923 523.474 133.802 522.28 132.31ZM527.054 148.967C524.402 151.42 521.253 152.646 517.607 152.646C513.96 152.646 510.811 151.42 508.159 148.967C505.508 146.514 504.182 143.083 504.182 138.675C504.182 134.233 505.508 130.786 508.159 128.333C510.811 125.88 513.96 124.653 517.607 124.653C521.253 124.653 524.402 125.88 527.054 128.333C529.705 130.786 531.031 134.233 531.031 138.675C531.031 143.083 529.705 146.514 527.054 148.967ZM542.606 152H535.745V125.25H542.457V143.498L554.241 125.25H561.102V152H554.39V134.399L542.606 152ZM574.549 152H567.986V125.25H578.079L584.195 144.442L590.261 125.25H600.354V152H593.791V130.819L586.581 152H581.759L574.549 130.819V152ZM623.179 132.31C622.019 130.786 620.461 130.023 618.506 130.023C616.55 130.023 614.975 130.786 613.782 132.31C612.622 133.802 612.042 135.923 612.042 138.675C612.042 141.426 612.622 143.547 613.782 145.039C614.975 146.531 616.55 147.276 618.506 147.276C620.461 147.276 622.019 146.531 623.179 145.039C624.373 143.547 624.969 141.426 624.969 138.675C624.969 135.923 624.373 133.802 623.179 132.31ZM627.953 148.967C625.301 151.42 622.152 152.646 618.506 152.646C614.859 152.646 611.71 151.42 609.059 148.967C606.407 146.514 605.081 143.083 605.081 138.675C605.081 134.233 606.407 130.786 609.059 128.333C611.71 125.88 614.859 124.653 618.506 124.653C622.152 124.653 625.301 125.88 627.953 128.333C630.604 130.786 631.93 134.233 631.93 138.675C631.93 143.083 630.604 146.514 627.953 148.967ZM648.369 124.653C651.385 124.653 654.037 125.499 656.324 127.189C658.644 128.846 660.036 131.25 660.501 134.399H653.937C653.672 133.106 653.009 132.045 651.949 131.217C650.888 130.388 649.694 129.974 648.369 129.974C646.512 129.974 644.971 130.736 643.745 132.261C642.551 133.785 641.955 135.89 641.955 138.575C641.955 141.327 642.551 143.481 643.745 145.039C644.938 146.564 646.496 147.326 648.418 147.326C649.711 147.326 650.888 146.962 651.949 146.232C653.009 145.503 653.755 144.393 654.186 142.901H660.749C660.02 146.315 658.495 148.801 656.175 150.359C653.854 151.884 651.153 152.646 648.07 152.646C644.126 152.646 640.944 151.354 638.524 148.768C636.137 146.149 634.944 142.785 634.944 138.675C634.944 134.564 636.187 131.2 638.673 128.581C641.159 125.963 644.391 124.653 648.369 124.653ZM676.907 152H670.045V130.67H661.344V125.25H685.608V130.67H676.907V152ZM702.393 152H689.764V125.25H696.625V133.951H702.144C705.89 133.951 708.608 134.68 710.299 136.139C712.022 137.564 712.884 139.802 712.884 142.851C712.884 146.199 712.039 148.569 710.348 149.961C708.658 151.32 706.006 152 702.393 152ZM696.625 139.321V146.63H701.548C703.172 146.63 704.365 146.332 705.128 145.735C705.89 145.138 706.271 144.144 706.271 142.752C706.271 141.525 705.873 140.647 705.078 140.117C704.316 139.586 703.122 139.321 701.498 139.321H696.625Z" fill="black"/>
<rect x="413" y="218" width="336" height="111" rx="50" fill="#598BE0"/>
<path d="M466 244.65C471.7 244.65 476.275 245.975 479.725 248.625C483.225 251.225 484.975 254.55 484.975 258.6C484.975 264.1 482.775 268.2 478.375 270.9C483.875 274.1 486.625 278.625 486.625 284.475C486.625 289.625 484.675 293.675 480.775 296.625C476.925 299.525 472 300.975 466 300.975C460.1 300.975 455.2 299.5 451.3 296.55C447.4 293.6 445.45 289.575 445.45 284.475C445.45 278.525 448.225 274 453.775 270.9C451.625 269.65 449.975 267.925 448.825 265.725C447.675 263.525 447.1 261.175 447.1 258.675C447.1 254.575 448.825 251.225 452.275 248.625C455.775 245.975 460.35 244.65 466 244.65ZM466 275.1C462.95 275.1 460.525 275.925 458.725 277.575C456.925 279.175 456.025 281.325 456.025 284.025C456.025 286.725 456.925 288.925 458.725 290.625C460.575 292.325 463 293.175 466 293.175C469.1 293.175 471.55 292.35 473.35 290.7C475.15 289 476.05 286.775 476.05 284.025C476.05 281.325 475.15 279.175 473.35 277.575C471.55 275.925 469.1 275.1 466 275.1ZM474.925 259.875C474.925 257.625 474.1 255.825 472.45 254.475C470.85 253.125 468.7 252.45 466 252.45C463.3 252.45 461.15 253.125 459.55 254.475C457.95 255.825 457.15 257.625 457.15 259.875C457.15 262.175 457.95 264.05 459.55 265.5C461.2 266.95 463.35 267.675 466 267.675C468.65 267.675 470.8 266.95 472.45 265.5C474.1 264.05 474.925 262.175 474.925 259.875ZM503.507 300H492.407V288.75H503.507V300ZM539.078 263.175C539.078 259.975 538.128 257.4 536.228 255.45C534.378 253.5 532.028 252.525 529.178 252.525C526.278 252.525 523.928 253.5 522.128 255.45C520.328 257.35 519.428 259.925 519.428 263.175C519.428 266.325 520.328 268.875 522.128 270.825C523.978 272.775 526.328 273.75 529.178 273.75C532.028 273.75 534.378 272.775 536.228 270.825C538.128 268.875 539.078 266.325 539.078 263.175ZM528.728 293.025C532.178 293.025 534.878 291.55 536.828 288.6C538.778 285.65 539.753 281.625 539.753 276.525C537.003 279.975 532.853 281.7 527.303 281.7C522.103 281.7 517.728 280.025 514.178 276.675C510.678 273.275 508.928 268.75 508.928 263.1C508.928 257.55 510.803 253.1 514.553 249.75C518.353 246.35 523.228 244.65 529.178 244.65C536.128 244.65 541.353 247.125 544.853 252.075C548.353 257.025 550.103 263.525 550.103 271.575C550.103 275.625 549.703 279.375 548.903 282.825C548.103 286.225 546.853 289.325 545.153 292.125C543.503 294.875 541.203 297.05 538.253 298.65C535.353 300.2 531.953 300.975 528.053 300.975C522.603 300.975 518.328 299.475 515.228 296.475C512.128 293.425 510.403 289.925 510.053 285.975H520.178C520.428 288.175 521.328 289.9 522.878 291.15C524.478 292.4 526.428 293.025 528.728 293.025ZM585.733 263.175C585.733 259.975 584.783 257.4 582.883 255.45C581.033 253.5 578.683 252.525 575.833 252.525C572.933 252.525 570.583 253.5 568.783 255.45C566.983 257.35 566.083 259.925 566.083 263.175C566.083 266.325 566.983 268.875 568.783 270.825C570.633 272.775 572.983 273.75 575.833 273.75C578.683 273.75 581.033 272.775 582.883 270.825C584.783 268.875 585.733 266.325 585.733 263.175ZM575.383 293.025C578.833 293.025 581.533 291.55 583.483 288.6C585.433 285.65 586.408 281.625 586.408 276.525C583.658 279.975 579.508 281.7 573.958 281.7C568.758 281.7 564.383 280.025 560.833 276.675C557.333 273.275 555.583 268.75 555.583 263.1C555.583 257.55 557.458 253.1 561.208 249.75C565.008 246.35 569.883 244.65 575.833 244.65C582.783 244.65 588.008 247.125 591.508 252.075C595.008 257.025 596.758 263.525 596.758 271.575C596.758 275.625 596.358 279.375 595.558 282.825C594.758 286.225 593.508 289.325 591.808 292.125C590.158 294.875 587.858 297.05 584.908 298.65C582.008 300.2 578.608 300.975 574.708 300.975C569.258 300.975 564.983 299.475 561.883 296.475C558.783 293.425 557.058 289.925 556.708 285.975H566.833C567.083 288.175 567.983 289.9 569.533 291.15C571.133 292.4 573.083 293.025 575.383 293.025ZM624.664 300.975C617.614 300.975 612.189 298.4 608.389 293.25C604.639 288.1 602.764 281.25 602.764 272.7C602.764 264.2 604.639 257.4 608.389 252.3C612.139 247.2 617.564 244.65 624.664 244.65C631.664 244.65 637.039 247.2 640.789 252.3C644.589 257.4 646.489 264.2 646.489 272.7C646.489 281.2 644.589 288.05 640.789 293.25C637.039 298.4 631.664 300.975 624.664 300.975ZM616.189 287.925C618.139 291.425 620.964 293.175 624.664 293.175C628.364 293.175 631.164 291.425 633.064 287.925C634.964 284.375 635.914 279.3 635.914 272.7C635.914 266.1 634.964 261.075 633.064 257.625C631.164 254.175 628.364 252.45 624.664 252.45C620.964 252.45 618.139 254.175 616.189 257.625C614.289 261.075 613.339 266.1 613.339 272.7C613.339 279.3 614.289 284.375 616.189 287.925ZM674.095 293.025C676.795 293.025 678.995 291.825 680.695 289.425C682.445 286.975 683.32 283.8 683.32 279.9C683.32 276 682.445 272.825 680.695 270.375C678.995 267.925 676.795 266.7 674.095 266.7C671.245 266.7 668.945 267.875 667.195 270.225C665.495 272.575 664.645 275.775 664.645 279.825C664.645 283.925 665.495 287.15 667.195 289.5C668.895 291.85 671.195 293.025 674.095 293.025ZM665.02 313.125H654.67V259.65H665.02V264.825C666.12 262.925 667.695 261.45 669.745 260.4C671.795 259.3 674.095 258.75 676.645 258.75C681.595 258.75 685.745 260.7 689.095 264.6C692.495 268.5 694.195 273.575 694.195 279.825C694.195 286.125 692.495 291.225 689.095 295.125C685.695 299.025 681.52 300.975 676.57 300.975C671.22 300.975 667.37 298.95 665.02 294.9V313.125Z" fill="white"/>
<path d="M453.76 389H448.24V367.32H442V363.56C443.2 363.533 444.12 363.48 444.76 363.4C445.427 363.32 446.093 363.16 446.76 362.92C447.453 362.68 448 362.333 448.4 361.88C448.827 361.4 449.213 360.773 449.56 360H453.76V389ZM474.166 369.36C474.166 367.653 473.659 366.28 472.646 365.24C471.659 364.2 470.406 363.68 468.886 363.68C467.339 363.68 466.086 364.2 465.126 365.24C464.166 366.253 463.686 367.627 463.686 369.36C463.686 371.04 464.166 372.4 465.126 373.44C466.112 374.48 467.366 375 468.886 375C470.406 375 471.659 374.48 472.646 373.44C473.659 372.4 474.166 371.04 474.166 369.36ZM468.646 385.28C470.486 385.28 471.926 384.493 472.966 382.92C474.006 381.347 474.526 379.2 474.526 376.48C473.059 378.32 470.846 379.24 467.886 379.24C465.112 379.24 462.779 378.347 460.886 376.56C459.019 374.747 458.086 372.333 458.086 369.32C458.086 366.36 459.086 363.987 461.086 362.2C463.112 360.387 465.712 359.48 468.886 359.48C472.592 359.48 475.379 360.8 477.246 363.44C479.112 366.08 480.046 369.547 480.046 373.84C480.046 376 479.832 378 479.406 379.84C478.979 381.653 478.312 383.307 477.406 384.8C476.526 386.267 475.299 387.427 473.726 388.28C472.179 389.107 470.366 389.52 468.286 389.52C465.379 389.52 463.099 388.72 461.446 387.12C459.792 385.493 458.872 383.627 458.686 381.52H464.086C464.219 382.693 464.699 383.613 465.526 384.28C466.379 384.947 467.419 385.28 468.646 385.28ZM488.007 389H482.087V383H488.007V389ZM506.978 369.36C506.978 367.653 506.471 366.28 505.458 365.24C504.471 364.2 503.218 363.68 501.698 363.68C500.151 363.68 498.898 364.2 497.938 365.24C496.978 366.253 496.498 367.627 496.498 369.36C496.498 371.04 496.978 372.4 497.938 373.44C498.925 374.48 500.178 375 501.698 375C503.218 375 504.471 374.48 505.458 373.44C506.471 372.4 506.978 371.04 506.978 369.36ZM501.458 385.28C503.298 385.28 504.738 384.493 505.778 382.92C506.818 381.347 507.338 379.2 507.338 376.48C505.871 378.32 503.658 379.24 500.698 379.24C497.925 379.24 495.591 378.347 493.698 376.56C491.831 374.747 490.898 372.333 490.898 369.32C490.898 366.36 491.898 363.987 493.898 362.2C495.925 360.387 498.525 359.48 501.698 359.48C505.405 359.48 508.191 360.8 510.058 363.44C511.925 366.08 512.858 369.547 512.858 373.84C512.858 376 512.645 378 512.218 379.84C511.791 381.653 511.125 383.307 510.218 384.8C509.338 386.267 508.111 387.427 506.538 388.28C504.991 389.107 503.178 389.52 501.098 389.52C498.191 389.52 495.911 388.72 494.258 387.12C492.605 385.493 491.685 383.627 491.498 381.52H496.898C497.031 382.693 497.511 383.613 498.338 384.28C499.191 384.947 500.231 385.28 501.458 385.28ZM531.861 369.36C531.861 367.653 531.354 366.28 530.341 365.24C529.354 364.2 528.101 363.68 526.581 363.68C525.034 363.68 523.781 364.2 522.821 365.24C521.861 366.253 521.381 367.627 521.381 369.36C521.381 371.04 521.861 372.4 522.821 373.44C523.808 374.48 525.061 375 526.581 375C528.101 375 529.354 374.48 530.341 373.44C531.354 372.4 531.861 371.04 531.861 369.36ZM526.341 385.28C528.181 385.28 529.621 384.493 530.661 382.92C531.701 381.347 532.221 379.2 532.221 376.48C530.754 378.32 528.541 379.24 525.581 379.24C522.808 379.24 520.474 378.347 518.581 376.56C516.714 374.747 515.781 372.333 515.781 369.32C515.781 366.36 516.781 363.987 518.781 362.2C520.808 360.387 523.408 359.48 526.581 359.48C530.288 359.48 533.074 360.8 534.941 363.44C536.808 366.08 537.741 369.547 537.741 373.84C537.741 376 537.528 378 537.101 379.84C536.674 381.653 536.008 383.307 535.101 384.8C534.221 386.267 532.994 387.427 531.421 388.28C529.874 389.107 528.061 389.52 525.981 389.52C523.074 389.52 520.794 388.72 519.141 387.12C517.488 385.493 516.568 383.627 516.381 381.52H521.781C521.914 382.693 522.394 383.613 523.221 384.28C524.074 384.947 525.114 385.28 526.341 385.28ZM552.624 389.52C548.864 389.52 545.97 388.147 543.944 385.4C541.944 382.653 540.944 379 540.944 374.44C540.944 369.907 541.944 366.28 543.944 363.56C545.944 360.84 548.837 359.48 552.624 359.48C556.357 359.48 559.224 360.84 561.224 363.56C563.25 366.28 564.264 369.907 564.264 374.44C564.264 378.973 563.25 382.627 561.224 385.4C559.224 388.147 556.357 389.52 552.624 389.52ZM548.104 382.56C549.144 384.427 550.65 385.36 552.624 385.36C554.597 385.36 556.09 384.427 557.104 382.56C558.117 380.667 558.624 377.96 558.624 374.44C558.624 370.92 558.117 368.24 557.104 366.4C556.09 364.56 554.597 363.64 552.624 363.64C550.65 363.64 549.144 364.56 548.104 366.4C547.09 368.24 546.584 370.92 546.584 374.44C546.584 377.96 547.09 380.667 548.104 382.56ZM578.987 385.28C580.427 385.28 581.601 384.64 582.507 383.36C583.441 382.053 583.907 380.36 583.907 378.28C583.907 376.2 583.441 374.507 582.507 373.2C581.601 371.893 580.427 371.24 578.987 371.24C577.467 371.24 576.241 371.867 575.307 373.12C574.401 374.373 573.947 376.08 573.947 378.24C573.947 380.427 574.401 382.147 575.307 383.4C576.214 384.653 577.441 385.28 578.987 385.28ZM574.147 396H568.627V367.48H574.147V370.24C574.734 369.227 575.574 368.44 576.667 367.88C577.761 367.293 578.987 367 580.347 367C582.987 367 585.201 368.04 586.987 370.12C588.801 372.2 589.707 374.907 589.707 378.24C589.707 381.6 588.801 384.32 586.987 386.4C585.174 388.48 582.947 389.52 580.307 389.52C577.454 389.52 575.401 388.44 574.147 386.28V396Z" fill="black" fill-opacity="0.7"/>
<path d="M442 377.4H590.787V380.2H442V377.4Z" fill="black" fill-opacity="0.7"/>
<rect x="397" y="472" width="385" height="51" rx="20" fill="#FFF0E9"/>
<path d="M425.551 493.9C426.885 493.9 428.059 494.274 429.071 495.022C430.097 495.755 430.713 496.819 430.919 498.212H428.015C427.897 497.64 427.604 497.171 427.135 496.804C426.665 496.437 426.137 496.254 425.551 496.254C424.729 496.254 424.047 496.591 423.505 497.266C422.977 497.941 422.713 498.872 422.713 500.06C422.713 501.277 422.977 502.231 423.505 502.92C424.033 503.595 424.722 503.932 425.573 503.932C426.145 503.932 426.665 503.771 427.135 503.448C427.604 503.125 427.934 502.634 428.125 501.974H431.029C430.706 503.485 430.031 504.585 429.005 505.274C427.978 505.949 426.783 506.286 425.419 506.286C423.673 506.286 422.265 505.714 421.195 504.57C420.139 503.411 419.611 501.923 419.611 500.104C419.611 498.285 420.161 496.797 421.261 495.638C422.361 494.479 423.791 493.9 425.551 493.9ZM435.71 506H432.652V494.164H435.71V499.906H435.732L439.89 494.164H443.322L438.856 499.994L443.52 506H440.022L435.732 500.192H435.71V506ZM448.192 506H445.156V494.164H448.126V502.238L453.34 494.164H456.376V506H453.406V498.212L448.192 506ZM461.049 508.75H458.233V503.602H458.893C459.304 503.602 459.627 503.455 459.861 503.162C460.111 502.869 460.316 502.289 460.477 501.424C460.653 500.544 460.778 499.297 460.851 497.684L461.005 494.164H470.091V503.602H471.917V508.75H469.101V506H461.049V508.75ZM462.435 503.602H467.055V496.562H463.733L463.601 498.718C463.513 500.053 463.396 501.043 463.249 501.688C463.103 502.333 462.831 502.971 462.435 503.602ZM476.938 506H473.88V494.164H476.938V499.906H476.96L481.118 494.164H484.55L480.084 499.994L484.748 506H481.25L476.96 500.192H476.938V506ZM492.999 501.468V500.588C491.21 500.779 489.97 501.013 489.281 501.292C488.592 501.571 488.247 502.025 488.247 502.656C488.247 503.111 488.423 503.485 488.775 503.778C489.127 504.071 489.633 504.218 490.293 504.218C492.097 504.218 492.999 503.301 492.999 501.468ZM493.263 504.526C492.442 505.699 491.151 506.286 489.391 506.286C488.218 506.286 487.213 505.971 486.377 505.34C485.541 504.695 485.123 503.851 485.123 502.81C485.123 502.135 485.299 501.556 485.651 501.072C486.018 500.588 486.568 500.192 487.301 499.884C488.034 499.561 488.834 499.312 489.699 499.136C490.564 498.96 491.635 498.799 492.911 498.652V498.454C492.911 496.811 492.17 495.99 490.689 495.99C490.073 495.99 489.56 496.151 489.149 496.474C488.738 496.797 488.518 497.273 488.489 497.904H485.651C485.768 496.701 486.289 495.726 487.213 494.978C488.137 494.23 489.347 493.856 490.843 493.856C494.246 493.856 495.947 495.594 495.947 499.07C495.947 499.129 495.94 499.547 495.925 500.324C495.91 501.087 495.903 501.673 495.903 502.084C495.903 503.741 496.02 505.047 496.255 506H493.461C493.417 505.809 493.351 505.318 493.263 504.526ZM508.939 503.998C509.79 503.998 510.479 503.712 511.007 503.14C511.55 502.553 511.821 501.761 511.821 500.764C511.821 499.723 511.528 498.923 510.941 498.366C510.369 497.794 509.68 497.508 508.873 497.508C508.199 497.508 507.619 497.647 507.135 497.926C506.651 498.205 506.321 498.549 506.145 498.96L503.373 498.828L504.429 490.05H514.263V492.602H506.915L506.475 496.012C507.267 495.425 508.323 495.132 509.643 495.132C511.095 495.132 512.335 495.631 513.361 496.628C514.388 497.625 514.901 498.997 514.901 500.742C514.901 502.443 514.322 503.793 513.163 504.79C512.019 505.787 510.597 506.286 508.895 506.286C507.121 506.286 505.713 505.773 504.671 504.746C503.645 503.719 503.087 502.465 502.999 500.984H505.859C505.947 501.879 506.248 502.605 506.761 503.162C507.289 503.719 508.015 503.998 508.939 503.998ZM522.646 503.998C523.497 503.998 524.186 503.712 524.714 503.14C525.257 502.553 525.528 501.761 525.528 500.764C525.528 499.723 525.235 498.923 524.648 498.366C524.076 497.794 523.387 497.508 522.58 497.508C521.906 497.508 521.326 497.647 520.842 497.926C520.358 498.205 520.028 498.549 519.852 498.96L517.08 498.828L518.136 490.05H527.97V492.602H520.622L520.182 496.012C520.974 495.425 522.03 495.132 523.35 495.132C524.802 495.132 526.042 495.631 527.068 496.628C528.095 497.625 528.608 498.997 528.608 500.742C528.608 502.443 528.029 503.793 526.87 504.79C525.726 505.787 524.304 506.286 522.602 506.286C520.828 506.286 519.42 505.773 518.378 504.746C517.352 503.719 516.794 502.465 516.706 500.984H519.566C519.654 501.879 519.955 502.605 520.468 503.162C520.996 503.719 521.722 503.998 522.646 503.998ZM534.043 499.18C532.767 499.18 531.792 498.777 531.117 497.97C530.457 497.149 530.127 495.997 530.127 494.516C530.127 493.049 530.457 491.913 531.117 491.106C531.792 490.299 532.767 489.896 534.043 489.896C535.305 489.896 536.265 490.299 536.925 491.106C537.585 491.913 537.915 493.049 537.915 494.516C537.915 495.997 537.585 497.149 536.925 497.97C536.265 498.777 535.305 499.18 534.043 499.18ZM534.043 497.64C534.571 497.64 534.989 497.383 535.297 496.87C535.605 496.357 535.759 495.572 535.759 494.516C535.759 492.477 535.187 491.458 534.043 491.458C532.885 491.458 532.305 492.477 532.305 494.516C532.305 496.599 532.885 497.64 534.043 497.64ZM537.277 506H534.153L545.175 490.05H548.299L537.277 506ZM548.453 506.154C547.177 506.154 546.202 505.751 545.527 504.944C544.867 504.123 544.537 502.971 544.537 501.49C544.537 500.023 544.867 498.887 545.527 498.08C546.202 497.273 547.177 496.87 548.453 496.87C549.715 496.87 550.675 497.273 551.335 498.08C551.995 498.887 552.325 500.023 552.325 501.49C552.325 502.971 551.995 504.123 551.335 504.944C550.675 505.751 549.715 506.154 548.453 506.154ZM548.453 504.614C548.981 504.614 549.399 504.357 549.707 503.844C550.015 503.331 550.169 502.546 550.169 501.49C550.169 499.451 549.597 498.432 548.453 498.432C547.295 498.432 546.715 499.451 546.715 501.49C546.715 503.573 547.295 504.614 548.453 504.614ZM565.151 506H562.115V496.562H558.265V494.164H569.001V496.562H565.151V506ZM577.643 497.288C577.13 496.613 576.441 496.276 575.575 496.276C574.71 496.276 574.013 496.613 573.485 497.288C572.972 497.948 572.715 498.887 572.715 500.104C572.715 501.321 572.972 502.26 573.485 502.92C574.013 503.58 574.71 503.91 575.575 503.91C576.441 503.91 577.13 503.58 577.643 502.92C578.171 502.26 578.435 501.321 578.435 500.104C578.435 498.887 578.171 497.948 577.643 497.288ZM579.755 504.658C578.582 505.743 577.189 506.286 575.575 506.286C573.962 506.286 572.569 505.743 571.395 504.658C570.222 503.573 569.635 502.055 569.635 500.104C569.635 498.139 570.222 496.613 571.395 495.528C572.569 494.443 573.962 493.9 575.575 493.9C577.189 493.9 578.582 494.443 579.755 495.528C580.929 496.613 581.515 498.139 581.515 500.104C581.515 502.055 580.929 503.573 579.755 504.658ZM582.837 506H582.265V503.602H582.551C583.167 503.602 583.615 503.184 583.893 502.348C584.187 501.512 584.392 500.023 584.509 497.882L584.729 494.164H593.661V506H590.625V496.562H587.567L587.391 499.378C587.259 501.637 586.827 503.309 586.093 504.394C585.375 505.465 584.289 506 582.837 506ZM602.294 506H596.706V494.164H599.742V498.014H602.184C603.842 498.014 605.044 498.337 605.792 498.982C606.555 499.613 606.936 500.603 606.936 501.952C606.936 503.433 606.562 504.482 605.814 505.098C605.066 505.699 603.893 506 602.294 506ZM599.742 500.39V503.624H601.92C602.639 503.624 603.167 503.492 603.504 503.228C603.842 502.964 604.01 502.524 604.01 501.908C604.01 501.365 603.834 500.977 603.482 500.742C603.145 500.507 602.617 500.39 601.898 500.39H599.742ZM612.118 506H609.06V494.164H612.118V499.906H612.14L616.298 494.164H619.73L615.264 499.994L619.928 506H616.43L612.14 500.192H612.118V506ZM628.239 497.288C627.726 496.613 627.037 496.276 626.171 496.276C625.306 496.276 624.609 496.613 624.081 497.288C623.568 497.948 623.311 498.887 623.311 500.104C623.311 501.321 623.568 502.26 624.081 502.92C624.609 503.58 625.306 503.91 626.171 503.91C627.037 503.91 627.726 503.58 628.239 502.92C628.767 502.26 629.031 501.321 629.031 500.104C629.031 498.887 628.767 497.948 628.239 497.288ZM630.351 504.658C629.178 505.743 627.785 506.286 626.171 506.286C624.558 506.286 623.165 505.743 621.991 504.658C620.818 503.573 620.231 502.055 620.231 500.104C620.231 498.139 620.818 496.613 621.991 495.528C623.165 494.443 624.558 493.9 626.171 493.9C627.785 493.9 629.178 494.443 630.351 495.528C631.525 496.613 632.111 498.139 632.111 500.104C632.111 502.055 631.525 503.573 630.351 504.658ZM642.196 506H639.16V494.164H642.196V498.74H647.124V494.164H650.16V506H647.124V501.138H642.196V506ZM660.427 501.468V500.588C658.638 500.779 657.398 501.013 656.709 501.292C656.02 501.571 655.675 502.025 655.675 502.656C655.675 503.111 655.851 503.485 656.203 503.778C656.555 504.071 657.061 504.218 657.721 504.218C659.525 504.218 660.427 503.301 660.427 501.468ZM660.691 504.526C659.87 505.699 658.579 506.286 656.819 506.286C655.646 506.286 654.641 505.971 653.805 505.34C652.969 504.695 652.551 503.851 652.551 502.81C652.551 502.135 652.727 501.556 653.079 501.072C653.446 500.588 653.996 500.192 654.729 499.884C655.462 499.561 656.262 499.312 657.127 499.136C657.992 498.96 659.063 498.799 660.339 498.652V498.454C660.339 496.811 659.598 495.99 658.117 495.99C657.501 495.99 656.988 496.151 656.577 496.474C656.166 496.797 655.946 497.273 655.917 497.904H653.079C653.196 496.701 653.717 495.726 654.641 494.978C655.565 494.23 656.775 493.856 658.271 493.856C661.674 493.856 663.375 495.594 663.375 499.07C663.375 499.129 663.368 499.547 663.353 500.324C663.338 501.087 663.331 501.673 663.331 502.084C663.331 503.741 663.448 505.047 663.683 506H660.889C660.845 505.809 660.779 505.318 660.691 504.526ZM674.057 506H671.021V494.164H674.057V498.74H678.985V494.164H682.021V506H678.985V501.138H674.057V506ZM695.874 500.918H687.14C687.228 501.886 687.551 502.634 688.108 503.162C688.68 503.675 689.355 503.932 690.132 503.932C691.247 503.932 692.076 503.477 692.618 502.568H695.742C695.376 503.595 694.723 504.475 693.784 505.208C692.846 505.927 691.636 506.286 690.154 506.286C688.306 506.286 686.84 505.692 685.754 504.504C684.669 503.301 684.126 501.813 684.126 500.038C684.126 498.263 684.676 496.797 685.776 495.638C686.891 494.479 688.321 493.9 690.066 493.9C691.885 493.9 693.322 494.545 694.378 495.836C695.434 497.127 695.933 498.821 695.874 500.918ZM690.044 496.122C689.37 496.122 688.754 496.342 688.196 496.782C687.639 497.222 687.302 497.904 687.184 498.828H692.794C692.765 497.904 692.479 497.222 691.936 496.782C691.408 496.342 690.778 496.122 690.044 496.122ZM699.612 508.75H696.796V503.602H697.456C697.866 503.602 698.189 503.455 698.424 503.162C698.673 502.869 698.878 502.289 699.04 501.424C699.216 500.544 699.34 499.297 699.414 497.684L699.568 494.164H708.654V503.602H710.48V508.75H707.664V506H699.612V508.75ZM700.998 503.602H705.618V496.562H702.296L702.164 498.718C702.076 500.053 701.958 501.043 701.812 501.688C701.665 502.333 701.394 502.971 700.998 503.602ZM723.095 500.918H714.361C714.449 501.886 714.772 502.634 715.329 503.162C715.901 503.675 716.576 503.932 717.353 503.932C718.468 503.932 719.296 503.477 719.839 502.568H722.963C722.596 503.595 721.944 504.475 721.005 505.208C720.066 505.927 718.856 506.286 717.375 506.286C715.527 506.286 714.06 505.692 712.975 504.504C711.89 503.301 711.347 501.813 711.347 500.038C711.347 498.263 711.897 496.797 712.997 495.638C714.112 494.479 715.542 493.9 717.287 493.9C719.106 493.9 720.543 494.545 721.599 495.836C722.655 497.127 723.154 498.821 723.095 500.918ZM717.265 496.122C716.59 496.122 715.974 496.342 715.417 496.782C714.86 497.222 714.522 497.904 714.405 498.828H720.015C719.986 497.904 719.7 497.222 719.157 496.782C718.629 496.342 717.998 496.122 717.265 496.122ZM724.699 506H724.127V503.602H724.413C725.029 503.602 725.476 503.184 725.755 502.348C726.048 501.512 726.253 500.023 726.371 497.882L726.591 494.164H735.523V506H732.487V496.562H729.429L729.253 499.378C729.121 501.637 728.688 503.309 727.955 504.394C727.236 505.465 726.151 506 724.699 506ZM749.304 506.286C747.822 506.286 746.561 505.824 745.52 504.9C744.478 503.976 743.892 502.641 743.76 500.896H741.604V506H738.568V494.164H741.604V498.498H743.87C744.148 496.973 744.786 495.814 745.784 495.022C746.781 494.23 747.954 493.834 749.304 493.834C751.02 493.834 752.442 494.369 753.572 495.44C754.716 496.496 755.288 498.036 755.288 500.06C755.288 502.084 754.716 503.631 753.572 504.702C752.442 505.758 751.02 506.286 749.304 506.286ZM749.304 503.91C750.213 503.91 750.924 503.595 751.438 502.964C751.951 502.333 752.208 501.365 752.208 500.06C752.208 497.493 751.24 496.21 749.304 496.21C747.617 496.21 746.774 497.493 746.774 500.06C746.774 502.627 747.617 503.91 749.304 503.91ZM759.861 506H756.605V502.7H759.861V506Z" fill="#FF671B"/>
<rect x="811" y="87" width="10" height="50" rx="5" fill="#222222"/>
<rect x="811" y="169" width="10" height="50" rx="5" fill="#222222"/>
<rect x="811" y="251" width="10" height="50" rx="5" fill="#222222"/>
<rect x="811" y="333" width="10" height="50" rx="5" fill="#222222"/>
<rect x="811" y="415" width="10" height="50" rx="5" fill="#222222"/>
<rect x="811" y="497" width="10" height="50" rx="5" fill="#222222"/>
</svg>
